M48
METRIC,LZ,000.000
;FILE_FORMAT=3:3
;TYPE=PLATED
;Layer: PTH_Through
;EasyEDA v6.5.38, 2023-12-01 14:45:36
;d3a44f610aa94845aa177982d7dd4480,0f913dacbf7e480eb1521c3b63592b38,10
;Gerber Generator version 0.2
;Holesize 1 = 0.800 mm
T01C0.800
;Holesize 2 = 0.889 mm
T02C0.889
;Holesize 3 = 0.900 mm
T03C0.900
;Holesize 4 = 0.915 mm
T04C0.915
;Holesize 5 = 1.000 mm
T05C1.000
%
G05
G90
T01
X023495Y043815
X002540Y010795
X015875Y050800
X008255Y028575
X010160Y020955
X011430Y027940
T02
X000635Y053975
X003175Y053975
X005715Y053975
X008255Y053975
X015875Y053975
X018415Y053975
X020955Y053975
X023495Y053975
T03
X019685Y039370
X019685Y046990
X017145Y001905
X009525Y001905
X005080Y024765
X005080Y032385
X020320Y036195
X012700Y036195
T04
X000635Y041275
X000635Y038735
X000635Y036195
X000635Y033655
X000635Y031115
X000635Y028575
X000635Y026035
X000635Y023495
X000635Y020955
X000635Y018415
X000635Y015875
X000635Y013335
X000635Y010795
X000635Y008255
X000635Y005715
X023495Y005715
X023495Y008255
X023495Y010795
X023495Y013335
X023495Y015875
X023495Y018415
X023495Y020955
X023495Y023495
X023495Y026035
X023495Y028575
X023495Y031115
X023495Y033655
X023495Y036195
X023495Y038735
X023495Y041275
T05
X012700Y040005
X015240Y040005
X015240Y047625
X012700Y047625
X018415Y029210
X015875Y029210
X015875Y021590
X018415Y021590
X005080Y006985
X007620Y006985
X007620Y014605
X005080Y014605
X005080Y040005
X007620Y040005
X007620Y047625
X005080Y047625
M30
