G04 Layer: TopLayer*
G04 EasyEDA v6.5.38, 2023-12-01 14:45:36*
G04 d3a44f610aa94845aa177982d7dd4480,0f913dacbf7e480eb1521c3b63592b38,10*
G04 Gerber Generator version 0.2*
G04 Scale: 100 percent, Rotated: No, Reflected: No *
G04 Dimensions in millimeters *
G04 leading zeros omitted , absolute positions ,4 integer and 5 decimal *
%FSLAX45Y45*%
%MOMM*%

%ADD10C,0.5000*%
%ADD11R,1.5748X1.5748*%
%ADD12C,1.5748*%
%ADD13C,1.5240*%
%ADD14C,1.8796*%
%ADD15R,1.8000X2.0000*%
%ADD16C,2.0000*%
%ADD17C,0.8000*%
%ADD18C,0.0102*%

%LPD*%
G36*
X-344932Y-291592D02*
G01*
X-348843Y-290830D01*
X-352094Y-288594D01*
X-354330Y-285343D01*
X-355092Y-281432D01*
X-355092Y5742432D01*
X-354330Y5746343D01*
X-352094Y5749594D01*
X-348843Y5751830D01*
X-344932Y5752592D01*
X2821432Y5752592D01*
X2825343Y5751830D01*
X2828594Y5749594D01*
X2830830Y5746343D01*
X2831592Y5742432D01*
X2831592Y-281432D01*
X2830830Y-285343D01*
X2828594Y-288594D01*
X2825343Y-290830D01*
X2821432Y-291592D01*
G37*

%LPC*%
G36*
X508203Y-182524D02*
G01*
X2476296Y-182524D01*
X2481326Y-182270D01*
X2486152Y-181660D01*
X2490876Y-180594D01*
X2495499Y-179171D01*
X2499969Y-177292D01*
X2504236Y-175056D01*
X2508351Y-172466D01*
X2512161Y-169519D01*
X2515920Y-166116D01*
X2706116Y24079D01*
X2709519Y27838D01*
X2712466Y31648D01*
X2715056Y35763D01*
X2717292Y40030D01*
X2719171Y44500D01*
X2720594Y49123D01*
X2721660Y53848D01*
X2722270Y58674D01*
X2722524Y63703D01*
X2722524Y4190796D01*
X2722270Y4195826D01*
X2721660Y4200652D01*
X2720594Y4205376D01*
X2719171Y4209999D01*
X2717292Y4214469D01*
X2715056Y4218736D01*
X2712466Y4222851D01*
X2709519Y4226661D01*
X2706116Y4230420D01*
X2515920Y4420616D01*
X2512161Y4424019D01*
X2508351Y4426966D01*
X2504236Y4429556D01*
X2499969Y4431792D01*
X2495499Y4433671D01*
X2490876Y4435094D01*
X2486152Y4436160D01*
X2481326Y4436770D01*
X2476296Y4437024D01*
X2396236Y4437024D01*
X2393492Y4437380D01*
X2390952Y4438497D01*
X2381504Y4444288D01*
X2371293Y4448505D01*
X2360523Y4451096D01*
X2349500Y4451959D01*
X2338476Y4451096D01*
X2327706Y4448505D01*
X2317496Y4444288D01*
X2308098Y4438497D01*
X2299665Y4431334D01*
X2292502Y4422902D01*
X2286711Y4413504D01*
X2282494Y4403293D01*
X2279904Y4392523D01*
X2279040Y4381500D01*
X2279904Y4370476D01*
X2282494Y4359706D01*
X2286711Y4349496D01*
X2292502Y4340098D01*
X2299665Y4331665D01*
X2308098Y4324502D01*
X2317496Y4318711D01*
X2327706Y4314494D01*
X2338476Y4311904D01*
X2349500Y4311040D01*
X2360523Y4311904D01*
X2371293Y4314494D01*
X2381504Y4318711D01*
X2390952Y4324502D01*
X2393492Y4325620D01*
X2396236Y4325975D01*
X2449322Y4325975D01*
X2453182Y4325213D01*
X2456484Y4323029D01*
X2608529Y4170984D01*
X2610713Y4167682D01*
X2611475Y4163822D01*
X2611475Y90678D01*
X2610713Y86817D01*
X2608529Y83515D01*
X2456484Y-68529D01*
X2453182Y-70713D01*
X2449322Y-71475D01*
X535178Y-71475D01*
X531317Y-70713D01*
X528015Y-68529D01*
X312470Y147015D01*
X310286Y150317D01*
X309524Y154178D01*
X309524Y1032764D01*
X309880Y1035507D01*
X310997Y1038047D01*
X316788Y1047496D01*
X321005Y1057706D01*
X323596Y1068476D01*
X324459Y1079500D01*
X323596Y1090523D01*
X321005Y1101293D01*
X316788Y1111504D01*
X310997Y1120902D01*
X303834Y1129334D01*
X295402Y1136497D01*
X286004Y1142288D01*
X275793Y1146505D01*
X265023Y1149096D01*
X254000Y1149959D01*
X242976Y1149096D01*
X232206Y1146505D01*
X221996Y1142288D01*
X212598Y1136497D01*
X204165Y1129334D01*
X197002Y1120902D01*
X191211Y1111504D01*
X186791Y1100785D01*
X184353Y1097280D01*
X180644Y1095095D01*
X176377Y1094587D01*
X172313Y1095908D01*
X169113Y1098753D01*
X167436Y1102715D01*
X166573Y1107135D01*
X162052Y1120343D01*
X155905Y1132840D01*
X148132Y1144422D01*
X138938Y1154938D01*
X128422Y1164132D01*
X116839Y1171905D01*
X104343Y1178052D01*
X91135Y1182573D01*
X77419Y1185265D01*
X63500Y1186180D01*
X49580Y1185265D01*
X35864Y1182573D01*
X22656Y1178052D01*
X10160Y1171905D01*
X-1422Y1164132D01*
X-11938Y1154938D01*
X-21132Y1144422D01*
X-28905Y1132840D01*
X-35052Y1120343D01*
X-39573Y1107135D01*
X-42265Y1093419D01*
X-43180Y1079500D01*
X-42265Y1065580D01*
X-39573Y1051864D01*
X-35052Y1038656D01*
X-28905Y1026160D01*
X-21132Y1014577D01*
X-11938Y1004062D01*
X-1422Y994867D01*
X10160Y987094D01*
X22656Y980948D01*
X35864Y976426D01*
X49580Y973734D01*
X63500Y972819D01*
X77419Y973734D01*
X91135Y976426D01*
X104343Y980948D01*
X116839Y987094D01*
X128422Y994867D01*
X138938Y1004062D01*
X148132Y1014577D01*
X155905Y1026160D01*
X162052Y1038656D01*
X166573Y1051864D01*
X167436Y1056284D01*
X169113Y1060246D01*
X172313Y1063091D01*
X176377Y1064412D01*
X180644Y1063904D01*
X184353Y1061720D01*
X186791Y1058214D01*
X191211Y1047496D01*
X197002Y1038047D01*
X198120Y1035507D01*
X198475Y1032764D01*
X198475Y127203D01*
X198729Y122174D01*
X199339Y117348D01*
X200406Y112623D01*
X201828Y108000D01*
X203708Y103530D01*
X205943Y99263D01*
X208534Y95148D01*
X211480Y91338D01*
X214884Y87579D01*
X468579Y-166116D01*
X472338Y-169519D01*
X476148Y-172466D01*
X480263Y-175056D01*
X484530Y-177292D01*
X489000Y-179171D01*
X493623Y-180594D01*
X498348Y-181660D01*
X503174Y-182270D01*
G37*
G36*
X0Y-70459D02*
G01*
X11023Y-69596D01*
X21793Y-67005D01*
X32004Y-62788D01*
X41402Y-56997D01*
X49834Y-49834D01*
X56997Y-41402D01*
X62788Y-32004D01*
X67005Y-21793D01*
X69596Y-11023D01*
X70459Y0D01*
X69596Y11023D01*
X67005Y21793D01*
X62788Y32004D01*
X56997Y41402D01*
X49834Y49834D01*
X41402Y56997D01*
X32004Y62788D01*
X21793Y67005D01*
X11023Y69596D01*
X0Y70459D01*
X-11023Y69596D01*
X-21793Y67005D01*
X-32004Y62788D01*
X-41402Y56997D01*
X-49834Y49834D01*
X-56997Y41402D01*
X-62788Y32004D01*
X-67005Y21793D01*
X-69596Y11023D01*
X-70459Y0D01*
X-69596Y-11023D01*
X-67005Y-21793D01*
X-62788Y-32004D01*
X-56997Y-41402D01*
X-49834Y-49834D01*
X-41402Y-56997D01*
X-32004Y-62788D01*
X-21793Y-67005D01*
X-11023Y-69596D01*
G37*
G36*
X1714500Y66040D02*
G01*
X1729486Y66954D01*
X1744268Y69646D01*
X1758645Y74117D01*
X1772361Y80264D01*
X1785213Y88087D01*
X1797050Y97332D01*
X1807667Y107950D01*
X1816912Y119786D01*
X1824736Y132638D01*
X1830882Y146354D01*
X1835353Y160731D01*
X1838045Y175514D01*
X1838960Y190500D01*
X1838045Y205486D01*
X1835353Y220268D01*
X1830882Y234645D01*
X1824736Y248361D01*
X1816912Y261213D01*
X1807667Y273050D01*
X1797050Y283667D01*
X1785213Y292912D01*
X1772361Y300736D01*
X1758645Y306882D01*
X1744268Y311353D01*
X1729486Y314045D01*
X1714500Y314960D01*
X1699514Y314045D01*
X1684731Y311353D01*
X1670354Y306882D01*
X1656638Y300736D01*
X1643786Y292912D01*
X1631950Y283667D01*
X1621332Y273050D01*
X1612087Y261213D01*
X1604264Y248361D01*
X1598117Y234645D01*
X1593646Y220268D01*
X1590954Y205486D01*
X1590040Y190500D01*
X1590954Y175514D01*
X1593646Y160731D01*
X1598117Y146354D01*
X1604264Y132638D01*
X1612087Y119786D01*
X1621332Y107950D01*
X1631950Y97332D01*
X1643786Y88087D01*
X1656638Y80264D01*
X1670354Y74117D01*
X1684731Y69646D01*
X1699514Y66954D01*
G37*
G36*
X952500Y66040D02*
G01*
X967486Y66954D01*
X982268Y69646D01*
X996645Y74117D01*
X1010361Y80264D01*
X1023213Y88087D01*
X1035050Y97332D01*
X1045667Y107950D01*
X1054912Y119786D01*
X1062736Y132638D01*
X1068882Y146354D01*
X1073353Y160731D01*
X1076045Y175514D01*
X1076960Y190500D01*
X1076045Y205486D01*
X1073353Y220268D01*
X1068882Y234645D01*
X1062736Y248361D01*
X1054912Y261213D01*
X1045667Y273050D01*
X1035050Y283667D01*
X1023213Y292912D01*
X1010361Y300736D01*
X996645Y306882D01*
X982268Y311353D01*
X967486Y314045D01*
X952500Y314960D01*
X937514Y314045D01*
X922731Y311353D01*
X908354Y306882D01*
X894638Y300736D01*
X881786Y292912D01*
X869950Y283667D01*
X859332Y273050D01*
X850087Y261213D01*
X842264Y248361D01*
X836117Y234645D01*
X831646Y220268D01*
X828954Y205486D01*
X828040Y190500D01*
X828954Y175514D01*
X831646Y160731D01*
X836117Y146354D01*
X842264Y132638D01*
X850087Y119786D01*
X859332Y107950D01*
X869950Y97332D01*
X881786Y88087D01*
X894638Y80264D01*
X908354Y74117D01*
X922731Y69646D01*
X937514Y66954D01*
G37*
G36*
X63500Y464820D02*
G01*
X77419Y465734D01*
X91135Y468426D01*
X104343Y472948D01*
X116839Y479094D01*
X128422Y486867D01*
X138938Y496062D01*
X148132Y506577D01*
X155905Y518159D01*
X162052Y530656D01*
X166573Y543864D01*
X169265Y557580D01*
X170180Y571500D01*
X169265Y585419D01*
X166573Y599135D01*
X162052Y612343D01*
X155905Y624840D01*
X148132Y636422D01*
X138938Y646938D01*
X128422Y656132D01*
X116839Y663905D01*
X104343Y670052D01*
X91135Y674573D01*
X77419Y677265D01*
X63500Y678180D01*
X49580Y677265D01*
X35864Y674573D01*
X22656Y670052D01*
X10160Y663905D01*
X-1422Y656132D01*
X-11938Y646938D01*
X-21132Y636422D01*
X-28905Y624840D01*
X-35052Y612343D01*
X-39573Y599135D01*
X-42265Y585419D01*
X-43180Y571500D01*
X-42265Y557580D01*
X-39573Y543864D01*
X-35052Y530656D01*
X-28905Y518159D01*
X-21132Y506577D01*
X-11938Y496062D01*
X-1422Y486867D01*
X10160Y479094D01*
X22656Y472948D01*
X35864Y468426D01*
X49580Y465734D01*
G37*
G36*
X2349500Y464820D02*
G01*
X2363419Y465734D01*
X2377135Y468426D01*
X2390343Y472948D01*
X2402840Y479094D01*
X2414422Y486867D01*
X2424938Y496062D01*
X2434132Y506577D01*
X2441905Y518159D01*
X2448052Y530656D01*
X2452573Y543864D01*
X2455265Y557580D01*
X2456180Y571500D01*
X2455265Y585419D01*
X2452573Y599135D01*
X2448052Y612343D01*
X2441905Y624840D01*
X2434132Y636422D01*
X2424938Y646938D01*
X2414422Y656132D01*
X2402840Y663905D01*
X2390343Y670052D01*
X2377135Y674573D01*
X2363419Y677265D01*
X2349500Y678180D01*
X2335580Y677265D01*
X2321864Y674573D01*
X2308656Y670052D01*
X2296160Y663905D01*
X2284577Y656132D01*
X2274062Y646938D01*
X2264867Y636422D01*
X2257094Y624840D01*
X2250948Y612343D01*
X2246426Y599135D01*
X2243734Y585419D01*
X2242820Y571500D01*
X2243734Y557580D01*
X2246426Y543864D01*
X2250948Y530656D01*
X2257094Y518159D01*
X2264867Y506577D01*
X2274062Y496062D01*
X2284577Y486867D01*
X2296160Y479094D01*
X2308656Y472948D01*
X2321864Y468426D01*
X2335580Y465734D01*
G37*
G36*
X418490Y567994D02*
G01*
X597509Y567994D01*
X603961Y568604D01*
X609650Y570382D01*
X614934Y573176D01*
X619556Y576986D01*
X623316Y581558D01*
X626160Y586841D01*
X627888Y592582D01*
X628497Y598982D01*
X628497Y631342D01*
X629462Y635660D01*
X632206Y639165D01*
X636117Y641197D01*
X640588Y641350D01*
X644652Y639572D01*
X647547Y636270D01*
X651662Y628853D01*
X660654Y616254D01*
X671118Y604875D01*
X682802Y594766D01*
X695655Y586130D01*
X709422Y579069D01*
X723900Y573684D01*
X738936Y570077D01*
X754278Y568248D01*
X769721Y568248D01*
X785063Y570077D01*
X800100Y573684D01*
X814628Y579069D01*
X828344Y586130D01*
X841197Y594766D01*
X852881Y604875D01*
X863346Y616254D01*
X872337Y628853D01*
X879805Y642366D01*
X885596Y656691D01*
X889711Y671626D01*
X891997Y686917D01*
X892454Y702360D01*
X891082Y717753D01*
X887882Y732891D01*
X882903Y747522D01*
X876300Y761492D01*
X868019Y774547D01*
X858266Y786587D01*
X847191Y797356D01*
X834898Y806704D01*
X821588Y814578D01*
X807415Y820826D01*
X792632Y825347D01*
X777443Y828090D01*
X762000Y829005D01*
X746556Y828090D01*
X731367Y825347D01*
X716584Y820826D01*
X702411Y814578D01*
X689102Y806704D01*
X676808Y797356D01*
X665734Y786587D01*
X655980Y774598D01*
X647293Y760730D01*
X644245Y757631D01*
X640181Y756056D01*
X635863Y756361D01*
X632053Y758393D01*
X629412Y761847D01*
X628497Y766114D01*
X628497Y798017D01*
X627888Y804418D01*
X626160Y810158D01*
X623316Y815441D01*
X619556Y820013D01*
X614934Y823823D01*
X609650Y826617D01*
X603961Y828395D01*
X597509Y829005D01*
X418490Y829005D01*
X412038Y828395D01*
X406349Y826617D01*
X401066Y823823D01*
X396443Y820013D01*
X392684Y815441D01*
X389839Y810158D01*
X388112Y804418D01*
X387502Y798017D01*
X387502Y598982D01*
X388112Y592582D01*
X389839Y586841D01*
X392684Y581558D01*
X396443Y576986D01*
X401066Y573176D01*
X406349Y570382D01*
X412038Y568604D01*
G37*
G36*
X2393950Y728726D02*
G01*
X2402840Y733094D01*
X2414422Y740867D01*
X2424938Y750062D01*
X2434132Y760577D01*
X2441905Y772160D01*
X2446274Y781050D01*
X2393950Y781050D01*
G37*
G36*
X2305050Y728726D02*
G01*
X2305050Y781050D01*
X2252726Y781050D01*
X2257094Y772160D01*
X2264867Y760577D01*
X2274062Y750062D01*
X2284577Y740867D01*
X2296160Y733094D01*
G37*
G36*
X19050Y728726D02*
G01*
X19050Y781050D01*
X-33274Y781050D01*
X-28905Y772160D01*
X-21132Y760577D01*
X-11938Y750062D01*
X-1422Y740867D01*
X10160Y733094D01*
G37*
G36*
X107950Y728726D02*
G01*
X116839Y733094D01*
X128422Y740867D01*
X138938Y750062D01*
X148132Y760577D01*
X155905Y772160D01*
X160274Y781050D01*
X107950Y781050D01*
G37*
G36*
X2252726Y869950D02*
G01*
X2305050Y869950D01*
X2305050Y922274D01*
X2296160Y917905D01*
X2284577Y910132D01*
X2274062Y900937D01*
X2264867Y890422D01*
X2257094Y878840D01*
G37*
G36*
X2393950Y869950D02*
G01*
X2446274Y869950D01*
X2441905Y878840D01*
X2434132Y890422D01*
X2424938Y900937D01*
X2414422Y910132D01*
X2402840Y917905D01*
X2393950Y922274D01*
G37*
G36*
X-33274Y869950D02*
G01*
X19050Y869950D01*
X19050Y922274D01*
X10160Y917905D01*
X-1422Y910132D01*
X-11938Y900937D01*
X-21132Y890422D01*
X-28905Y878840D01*
G37*
G36*
X107950Y869950D02*
G01*
X160274Y869950D01*
X155905Y878840D01*
X148132Y890422D01*
X138938Y900937D01*
X128422Y910132D01*
X116839Y917905D01*
X107950Y922274D01*
G37*
G36*
X2349500Y972819D02*
G01*
X2363419Y973734D01*
X2377135Y976426D01*
X2390343Y980948D01*
X2402840Y987094D01*
X2414422Y994867D01*
X2424938Y1004062D01*
X2434132Y1014577D01*
X2441905Y1026160D01*
X2448052Y1038656D01*
X2452573Y1051864D01*
X2455265Y1065580D01*
X2456180Y1079500D01*
X2455265Y1093419D01*
X2452573Y1107135D01*
X2448052Y1120343D01*
X2441905Y1132840D01*
X2434132Y1144422D01*
X2424938Y1154938D01*
X2414422Y1164132D01*
X2402840Y1171905D01*
X2390343Y1178052D01*
X2377135Y1182573D01*
X2363419Y1185265D01*
X2349500Y1186180D01*
X2335580Y1185265D01*
X2321864Y1182573D01*
X2308656Y1178052D01*
X2296160Y1171905D01*
X2284577Y1164132D01*
X2274062Y1154938D01*
X2264867Y1144422D01*
X2257094Y1132840D01*
X2250948Y1120343D01*
X2246426Y1107135D01*
X2243734Y1093419D01*
X2242820Y1079500D01*
X2243734Y1065580D01*
X2246426Y1051864D01*
X2250948Y1038656D01*
X2257094Y1026160D01*
X2264867Y1014577D01*
X2274062Y1004062D01*
X2284577Y994867D01*
X2296160Y987094D01*
X2308656Y980948D01*
X2321864Y976426D01*
X2335580Y973734D01*
G37*
G36*
X63500Y1226820D02*
G01*
X77419Y1227734D01*
X91135Y1230426D01*
X104343Y1234948D01*
X116839Y1241094D01*
X128422Y1248867D01*
X138938Y1258062D01*
X148132Y1268577D01*
X155905Y1280160D01*
X162052Y1292656D01*
X166573Y1305864D01*
X169265Y1319580D01*
X170180Y1333500D01*
X169265Y1347419D01*
X166573Y1361135D01*
X162052Y1374343D01*
X155905Y1386840D01*
X148132Y1398422D01*
X138938Y1408938D01*
X128422Y1418132D01*
X116839Y1425905D01*
X104343Y1432052D01*
X91135Y1436573D01*
X77419Y1439265D01*
X63500Y1440180D01*
X49580Y1439265D01*
X35864Y1436573D01*
X22656Y1432052D01*
X10160Y1425905D01*
X-1422Y1418132D01*
X-11938Y1408938D01*
X-21132Y1398422D01*
X-28905Y1386840D01*
X-35052Y1374343D01*
X-39573Y1361135D01*
X-42265Y1347419D01*
X-43180Y1333500D01*
X-42265Y1319580D01*
X-39573Y1305864D01*
X-35052Y1292656D01*
X-28905Y1280160D01*
X-21132Y1268577D01*
X-11938Y1258062D01*
X-1422Y1248867D01*
X10160Y1241094D01*
X22656Y1234948D01*
X35864Y1230426D01*
X49580Y1227734D01*
G37*
G36*
X2349500Y1226820D02*
G01*
X2363419Y1227734D01*
X2377135Y1230426D01*
X2390343Y1234948D01*
X2402840Y1241094D01*
X2414422Y1248867D01*
X2424938Y1258062D01*
X2434132Y1268577D01*
X2441905Y1280160D01*
X2448052Y1292656D01*
X2452573Y1305864D01*
X2455265Y1319580D01*
X2456180Y1333500D01*
X2455265Y1347419D01*
X2452573Y1361135D01*
X2448052Y1374343D01*
X2441905Y1386840D01*
X2434132Y1398422D01*
X2424938Y1408938D01*
X2414422Y1418132D01*
X2402840Y1425905D01*
X2390343Y1432052D01*
X2377135Y1436573D01*
X2363419Y1439265D01*
X2349500Y1440180D01*
X2335580Y1439265D01*
X2321864Y1436573D01*
X2308656Y1432052D01*
X2296160Y1425905D01*
X2284577Y1418132D01*
X2274062Y1408938D01*
X2264867Y1398422D01*
X2257094Y1386840D01*
X2250948Y1374343D01*
X2246426Y1361135D01*
X2243734Y1347419D01*
X2242820Y1333500D01*
X2243734Y1319580D01*
X2246426Y1305864D01*
X2250948Y1292656D01*
X2257094Y1280160D01*
X2264867Y1268577D01*
X2274062Y1258062D01*
X2284577Y1248867D01*
X2296160Y1241094D01*
X2308656Y1234948D01*
X2321864Y1230426D01*
X2335580Y1227734D01*
G37*
G36*
X500278Y1330248D02*
G01*
X515721Y1330248D01*
X531063Y1332077D01*
X546100Y1335684D01*
X560628Y1341069D01*
X574344Y1348130D01*
X587197Y1356766D01*
X598881Y1366875D01*
X609346Y1378254D01*
X618337Y1390853D01*
X626110Y1404924D01*
X628954Y1408176D01*
X632002Y1409547D01*
X631444Y1410360D01*
X630631Y1414272D01*
X631596Y1418691D01*
X635711Y1433626D01*
X637997Y1448917D01*
X638454Y1464360D01*
X637082Y1479753D01*
X633882Y1494891D01*
X630986Y1503426D01*
X630478Y1507236D01*
X631291Y1510944D01*
X628091Y1512976D01*
X625805Y1516024D01*
X622300Y1523492D01*
X614019Y1536547D01*
X604266Y1548587D01*
X593191Y1559356D01*
X580898Y1568704D01*
X567588Y1576578D01*
X553415Y1582826D01*
X538632Y1587347D01*
X523443Y1590090D01*
X508000Y1591005D01*
X492556Y1590090D01*
X477367Y1587347D01*
X462584Y1582826D01*
X448411Y1576578D01*
X435101Y1568704D01*
X422808Y1559356D01*
X411734Y1548587D01*
X401980Y1536547D01*
X393750Y1523492D01*
X387096Y1509522D01*
X382117Y1494891D01*
X378917Y1479753D01*
X377545Y1464360D01*
X378002Y1448917D01*
X380288Y1433626D01*
X384403Y1418691D01*
X390194Y1404366D01*
X397662Y1390853D01*
X406654Y1378254D01*
X417118Y1366875D01*
X428802Y1356766D01*
X441655Y1348130D01*
X455422Y1341069D01*
X469900Y1335684D01*
X484936Y1332077D01*
G37*
G36*
X818337Y1342999D02*
G01*
X828344Y1348130D01*
X841197Y1356766D01*
X852881Y1366875D01*
X863346Y1378254D01*
X872337Y1390853D01*
X879703Y1404162D01*
X818337Y1404162D01*
G37*
G36*
X705662Y1342999D02*
G01*
X705662Y1404162D01*
X644296Y1404162D01*
X651662Y1390853D01*
X660654Y1378254D01*
X671118Y1366875D01*
X682802Y1356766D01*
X695655Y1348130D01*
G37*
G36*
X63500Y1480820D02*
G01*
X77419Y1481734D01*
X91135Y1484426D01*
X104343Y1488948D01*
X116839Y1495094D01*
X128422Y1502867D01*
X138938Y1512062D01*
X148132Y1522577D01*
X155905Y1534160D01*
X162052Y1546656D01*
X166573Y1559864D01*
X169265Y1573580D01*
X170180Y1587500D01*
X169265Y1601419D01*
X166573Y1615135D01*
X162052Y1628343D01*
X155905Y1640839D01*
X148132Y1652422D01*
X138938Y1662938D01*
X128422Y1672132D01*
X116839Y1679905D01*
X104343Y1686052D01*
X91135Y1690573D01*
X77419Y1693265D01*
X63500Y1694180D01*
X49580Y1693265D01*
X35864Y1690573D01*
X22656Y1686052D01*
X10160Y1679905D01*
X-1422Y1672132D01*
X-11938Y1662938D01*
X-21132Y1652422D01*
X-28905Y1640839D01*
X-35052Y1628343D01*
X-39573Y1615135D01*
X-42265Y1601419D01*
X-43180Y1587500D01*
X-42265Y1573580D01*
X-39573Y1559864D01*
X-35052Y1546656D01*
X-28905Y1534160D01*
X-21132Y1522577D01*
X-11938Y1512062D01*
X-1422Y1502867D01*
X10160Y1495094D01*
X22656Y1488948D01*
X35864Y1484426D01*
X49580Y1481734D01*
G37*
G36*
X2349500Y1480820D02*
G01*
X2363419Y1481734D01*
X2377135Y1484426D01*
X2390343Y1488948D01*
X2402840Y1495094D01*
X2414422Y1502867D01*
X2424938Y1512062D01*
X2434132Y1522577D01*
X2441905Y1534160D01*
X2448052Y1546656D01*
X2452573Y1559864D01*
X2455265Y1573580D01*
X2456180Y1587500D01*
X2455265Y1601419D01*
X2452573Y1615135D01*
X2448052Y1628343D01*
X2441905Y1640839D01*
X2434132Y1652422D01*
X2424938Y1662938D01*
X2414422Y1672132D01*
X2402840Y1679905D01*
X2390343Y1686052D01*
X2377135Y1690573D01*
X2363419Y1693265D01*
X2349500Y1694180D01*
X2335580Y1693265D01*
X2321864Y1690573D01*
X2308656Y1686052D01*
X2296160Y1679905D01*
X2284577Y1672132D01*
X2274062Y1662938D01*
X2264867Y1652422D01*
X2257094Y1640839D01*
X2250948Y1628343D01*
X2246426Y1615135D01*
X2243734Y1601419D01*
X2242820Y1587500D01*
X2243734Y1573580D01*
X2246426Y1559864D01*
X2250948Y1546656D01*
X2257094Y1534160D01*
X2264867Y1522577D01*
X2274062Y1512062D01*
X2284577Y1502867D01*
X2296160Y1495094D01*
X2308656Y1488948D01*
X2321864Y1484426D01*
X2335580Y1481734D01*
G37*
G36*
X818337Y1516837D02*
G01*
X879449Y1516837D01*
X876300Y1523492D01*
X868019Y1536547D01*
X858266Y1548587D01*
X847191Y1559356D01*
X834898Y1568704D01*
X821588Y1576578D01*
X818337Y1578000D01*
G37*
G36*
X644550Y1516837D02*
G01*
X705662Y1516837D01*
X705662Y1578000D01*
X702411Y1576578D01*
X689102Y1568704D01*
X676808Y1559356D01*
X665734Y1548587D01*
X655980Y1536547D01*
X647750Y1523492D01*
G37*
G36*
X2349500Y1734820D02*
G01*
X2363419Y1735734D01*
X2377135Y1738426D01*
X2390343Y1742948D01*
X2402840Y1749094D01*
X2414422Y1756867D01*
X2424938Y1766062D01*
X2434132Y1776577D01*
X2441905Y1788160D01*
X2448052Y1800656D01*
X2452573Y1813864D01*
X2455265Y1827580D01*
X2456180Y1841500D01*
X2455265Y1855419D01*
X2452573Y1869135D01*
X2448052Y1882343D01*
X2441905Y1894839D01*
X2434132Y1906422D01*
X2424938Y1916938D01*
X2414422Y1926132D01*
X2402840Y1933905D01*
X2390343Y1940052D01*
X2377135Y1944573D01*
X2363419Y1947265D01*
X2349500Y1948180D01*
X2335580Y1947265D01*
X2321864Y1944573D01*
X2308656Y1940052D01*
X2296160Y1933905D01*
X2284577Y1926132D01*
X2274062Y1916938D01*
X2264867Y1906422D01*
X2257094Y1894839D01*
X2250948Y1882343D01*
X2246426Y1869135D01*
X2243734Y1855419D01*
X2242820Y1841500D01*
X2243734Y1827580D01*
X2246426Y1813864D01*
X2250948Y1800656D01*
X2257094Y1788160D01*
X2264867Y1776577D01*
X2274062Y1766062D01*
X2284577Y1756867D01*
X2296160Y1749094D01*
X2308656Y1742948D01*
X2321864Y1738426D01*
X2335580Y1735734D01*
G37*
G36*
X19050Y1744725D02*
G01*
X19050Y1797050D01*
X-33274Y1797050D01*
X-28905Y1788160D01*
X-21132Y1776577D01*
X-11938Y1766062D01*
X-1422Y1756867D01*
X10160Y1749094D01*
G37*
G36*
X107950Y1744725D02*
G01*
X116839Y1749094D01*
X128422Y1756867D01*
X138938Y1766062D01*
X148132Y1776577D01*
X155905Y1788160D01*
X160274Y1797050D01*
X107950Y1797050D01*
G37*
G36*
X107950Y1885950D02*
G01*
X160274Y1885950D01*
X155905Y1894839D01*
X148132Y1906422D01*
X138938Y1916938D01*
X128422Y1926132D01*
X116839Y1933905D01*
X107950Y1938274D01*
G37*
G36*
X-33274Y1885950D02*
G01*
X19050Y1885950D01*
X19050Y1938274D01*
X10160Y1933905D01*
X-1422Y1926132D01*
X-11938Y1916938D01*
X-21132Y1906422D01*
X-28905Y1894839D01*
G37*
G36*
X63500Y1988820D02*
G01*
X77419Y1989734D01*
X91135Y1992426D01*
X104343Y1996948D01*
X116839Y2003094D01*
X128422Y2010867D01*
X138938Y2020062D01*
X148132Y2030577D01*
X155905Y2042160D01*
X162052Y2054656D01*
X166573Y2067864D01*
X169265Y2081580D01*
X170180Y2095500D01*
X169265Y2109419D01*
X166573Y2123135D01*
X162052Y2136343D01*
X155905Y2148840D01*
X148132Y2160422D01*
X138938Y2170938D01*
X128422Y2180132D01*
X116839Y2187905D01*
X104343Y2194052D01*
X91135Y2198573D01*
X77419Y2201265D01*
X63500Y2202180D01*
X49580Y2201265D01*
X35864Y2198573D01*
X22656Y2194052D01*
X10160Y2187905D01*
X-1422Y2180132D01*
X-11938Y2170938D01*
X-21132Y2160422D01*
X-28905Y2148840D01*
X-35052Y2136343D01*
X-39573Y2123135D01*
X-42265Y2109419D01*
X-43180Y2095500D01*
X-42265Y2081580D01*
X-39573Y2067864D01*
X-35052Y2054656D01*
X-28905Y2042160D01*
X-21132Y2030577D01*
X-11938Y2020062D01*
X-1422Y2010867D01*
X10160Y2003094D01*
X22656Y1996948D01*
X35864Y1992426D01*
X49580Y1989734D01*
G37*
G36*
X2349500Y1988820D02*
G01*
X2363419Y1989734D01*
X2377135Y1992426D01*
X2390343Y1996948D01*
X2402840Y2003094D01*
X2414422Y2010867D01*
X2424938Y2020062D01*
X2434132Y2030577D01*
X2441905Y2042160D01*
X2448052Y2054656D01*
X2452573Y2067864D01*
X2455265Y2081580D01*
X2456180Y2095500D01*
X2455265Y2109419D01*
X2452573Y2123135D01*
X2448052Y2136343D01*
X2441905Y2148840D01*
X2434132Y2160422D01*
X2424938Y2170938D01*
X2414422Y2180132D01*
X2402840Y2187905D01*
X2390343Y2194052D01*
X2377135Y2198573D01*
X2363419Y2201265D01*
X2349500Y2202180D01*
X2335580Y2201265D01*
X2321864Y2198573D01*
X2308656Y2194052D01*
X2296160Y2187905D01*
X2284577Y2180132D01*
X2274062Y2170938D01*
X2264867Y2160422D01*
X2257094Y2148840D01*
X2250948Y2136343D01*
X2246426Y2123135D01*
X2243734Y2109419D01*
X2242820Y2095500D01*
X2243734Y2081580D01*
X2246426Y2067864D01*
X2250948Y2054656D01*
X2257094Y2042160D01*
X2264867Y2030577D01*
X2274062Y2020062D01*
X2284577Y2010867D01*
X2296160Y2003094D01*
X2308656Y1996948D01*
X2321864Y1992426D01*
X2335580Y1989734D01*
G37*
G36*
X1841500Y2028494D02*
G01*
X1856943Y2029409D01*
X1872132Y2032152D01*
X1886915Y2036673D01*
X1901088Y2042922D01*
X1914398Y2050796D01*
X1926691Y2060143D01*
X1937766Y2070912D01*
X1947519Y2082901D01*
X1955800Y2096007D01*
X1962404Y2109978D01*
X1967382Y2124608D01*
X1970582Y2139746D01*
X1971954Y2155139D01*
X1971497Y2170582D01*
X1969211Y2185873D01*
X1965096Y2200808D01*
X1959305Y2215134D01*
X1951837Y2228646D01*
X1942846Y2241245D01*
X1932381Y2252624D01*
X1920697Y2262733D01*
X1907844Y2271369D01*
X1894128Y2278430D01*
X1879600Y2283815D01*
X1864563Y2287422D01*
X1849221Y2289251D01*
X1833778Y2289251D01*
X1818436Y2287422D01*
X1803400Y2283815D01*
X1788922Y2278430D01*
X1775155Y2271369D01*
X1762302Y2262733D01*
X1750618Y2252624D01*
X1740154Y2241245D01*
X1731162Y2228646D01*
X1723389Y2214575D01*
X1720545Y2211324D01*
X1717497Y2209952D01*
X1718056Y2209139D01*
X1718868Y2205228D01*
X1717903Y2200808D01*
X1713788Y2185873D01*
X1711502Y2170582D01*
X1711045Y2155139D01*
X1712417Y2139746D01*
X1715617Y2124608D01*
X1718513Y2116074D01*
X1719021Y2112264D01*
X1718208Y2108555D01*
X1721408Y2106523D01*
X1723694Y2103475D01*
X1727250Y2096007D01*
X1735480Y2082901D01*
X1745234Y2070912D01*
X1756308Y2060143D01*
X1768602Y2050796D01*
X1781911Y2042922D01*
X1796084Y2036673D01*
X1810867Y2032152D01*
X1826056Y2029409D01*
G37*
G36*
X1531162Y2041499D02*
G01*
X1531162Y2102662D01*
X1470050Y2102662D01*
X1473250Y2096007D01*
X1481480Y2082901D01*
X1491234Y2070912D01*
X1502308Y2060143D01*
X1514602Y2050796D01*
X1527911Y2042922D01*
G37*
G36*
X1643837Y2041499D02*
G01*
X1647088Y2042922D01*
X1660398Y2050796D01*
X1672691Y2060143D01*
X1683766Y2070912D01*
X1693519Y2082901D01*
X1701800Y2096007D01*
X1704949Y2102662D01*
X1643837Y2102662D01*
G37*
G36*
X1643837Y2215337D02*
G01*
X1705203Y2215337D01*
X1697837Y2228646D01*
X1688846Y2241245D01*
X1678381Y2252624D01*
X1666697Y2262733D01*
X1653844Y2271369D01*
X1643837Y2276500D01*
G37*
G36*
X1469796Y2215337D02*
G01*
X1531162Y2215337D01*
X1531162Y2276500D01*
X1521155Y2271369D01*
X1508302Y2262733D01*
X1496618Y2252624D01*
X1486154Y2241245D01*
X1477162Y2228646D01*
G37*
G36*
X63500Y2242820D02*
G01*
X77419Y2243734D01*
X91135Y2246426D01*
X104343Y2250948D01*
X116839Y2257094D01*
X128422Y2264867D01*
X138938Y2274062D01*
X148132Y2284577D01*
X155905Y2296160D01*
X162052Y2308656D01*
X166573Y2321864D01*
X169265Y2335580D01*
X170180Y2349500D01*
X169265Y2363419D01*
X166573Y2377135D01*
X162052Y2390343D01*
X155905Y2402840D01*
X148132Y2414422D01*
X138938Y2424938D01*
X128422Y2434132D01*
X116839Y2441905D01*
X104343Y2448052D01*
X91135Y2452573D01*
X77419Y2455265D01*
X63500Y2456180D01*
X49580Y2455265D01*
X35864Y2452573D01*
X22656Y2448052D01*
X10160Y2441905D01*
X-1422Y2434132D01*
X-11938Y2424938D01*
X-21132Y2414422D01*
X-28905Y2402840D01*
X-35052Y2390343D01*
X-39573Y2377135D01*
X-42265Y2363419D01*
X-43180Y2349500D01*
X-42265Y2335580D01*
X-39573Y2321864D01*
X-35052Y2308656D01*
X-28905Y2296160D01*
X-21132Y2284577D01*
X-11938Y2274062D01*
X-1422Y2264867D01*
X10160Y2257094D01*
X22656Y2250948D01*
X35864Y2246426D01*
X49580Y2243734D01*
G37*
G36*
X2349500Y2242820D02*
G01*
X2363419Y2243734D01*
X2377135Y2246426D01*
X2390343Y2250948D01*
X2402840Y2257094D01*
X2414422Y2264867D01*
X2424938Y2274062D01*
X2434132Y2284577D01*
X2441905Y2296160D01*
X2448052Y2308656D01*
X2452573Y2321864D01*
X2455265Y2335580D01*
X2456180Y2349500D01*
X2455265Y2363419D01*
X2452573Y2377135D01*
X2448052Y2390343D01*
X2441905Y2402840D01*
X2434132Y2414422D01*
X2424938Y2424938D01*
X2414422Y2434132D01*
X2402840Y2441905D01*
X2390343Y2448052D01*
X2377135Y2452573D01*
X2363419Y2455265D01*
X2349500Y2456180D01*
X2335580Y2455265D01*
X2321864Y2452573D01*
X2308656Y2448052D01*
X2296160Y2441905D01*
X2284577Y2434132D01*
X2274062Y2424938D01*
X2264867Y2414422D01*
X2257094Y2402840D01*
X2250948Y2390343D01*
X2246426Y2377135D01*
X2243734Y2363419D01*
X2242820Y2349500D01*
X2243734Y2335580D01*
X2246426Y2321864D01*
X2250948Y2308656D01*
X2257094Y2296160D01*
X2264867Y2284577D01*
X2274062Y2274062D01*
X2284577Y2264867D01*
X2296160Y2257094D01*
X2308656Y2250948D01*
X2321864Y2246426D01*
X2335580Y2243734D01*
G37*
G36*
X508000Y2352040D02*
G01*
X522985Y2352954D01*
X537768Y2355646D01*
X552145Y2360117D01*
X565861Y2366264D01*
X578713Y2374087D01*
X590550Y2383332D01*
X601167Y2393950D01*
X610412Y2405786D01*
X618236Y2418638D01*
X624382Y2432354D01*
X628853Y2446731D01*
X631545Y2461514D01*
X632460Y2476500D01*
X631545Y2491486D01*
X628853Y2506268D01*
X624382Y2520645D01*
X618236Y2534361D01*
X610412Y2547213D01*
X601167Y2559050D01*
X590550Y2569667D01*
X578713Y2578912D01*
X565861Y2586736D01*
X552145Y2592882D01*
X537768Y2597353D01*
X522985Y2600045D01*
X508000Y2600960D01*
X493014Y2600045D01*
X478231Y2597353D01*
X463854Y2592882D01*
X450138Y2586736D01*
X437286Y2578912D01*
X425450Y2569667D01*
X414832Y2559050D01*
X405587Y2547213D01*
X397764Y2534361D01*
X391617Y2520645D01*
X387146Y2506268D01*
X384454Y2491486D01*
X383540Y2476500D01*
X384454Y2461514D01*
X387146Y2446731D01*
X391617Y2432354D01*
X397764Y2418638D01*
X405587Y2405786D01*
X414832Y2393950D01*
X425450Y2383332D01*
X437286Y2374087D01*
X450138Y2366264D01*
X463854Y2360117D01*
X478231Y2355646D01*
X493014Y2352954D01*
G37*
G36*
X63500Y2496820D02*
G01*
X77419Y2497734D01*
X91135Y2500426D01*
X104343Y2504948D01*
X116839Y2511094D01*
X128422Y2518867D01*
X138938Y2528062D01*
X148132Y2538577D01*
X155905Y2550160D01*
X162052Y2562656D01*
X166573Y2575864D01*
X169265Y2589580D01*
X170180Y2603500D01*
X169265Y2617419D01*
X166573Y2631135D01*
X162052Y2644343D01*
X155905Y2656840D01*
X148132Y2668422D01*
X138938Y2678938D01*
X128422Y2688132D01*
X116839Y2695905D01*
X104343Y2702052D01*
X91135Y2706573D01*
X77419Y2709265D01*
X63500Y2710180D01*
X49580Y2709265D01*
X35864Y2706573D01*
X22656Y2702052D01*
X10160Y2695905D01*
X-1422Y2688132D01*
X-11938Y2678938D01*
X-21132Y2668422D01*
X-28905Y2656840D01*
X-35052Y2644343D01*
X-39573Y2631135D01*
X-42265Y2617419D01*
X-43180Y2603500D01*
X-42265Y2589580D01*
X-39573Y2575864D01*
X-35052Y2562656D01*
X-28905Y2550160D01*
X-21132Y2538577D01*
X-11938Y2528062D01*
X-1422Y2518867D01*
X10160Y2511094D01*
X22656Y2504948D01*
X35864Y2500426D01*
X49580Y2497734D01*
G37*
G36*
X2305050Y2506726D02*
G01*
X2305050Y2559050D01*
X2252726Y2559050D01*
X2257094Y2550160D01*
X2264867Y2538577D01*
X2274062Y2528062D01*
X2284577Y2518867D01*
X2296160Y2511094D01*
G37*
G36*
X2393950Y2506726D02*
G01*
X2402840Y2511094D01*
X2414422Y2518867D01*
X2424938Y2528062D01*
X2434132Y2538577D01*
X2441905Y2550160D01*
X2446274Y2559050D01*
X2393950Y2559050D01*
G37*
G36*
X2252726Y2647950D02*
G01*
X2305050Y2647950D01*
X2305050Y2700274D01*
X2296160Y2695905D01*
X2284577Y2688132D01*
X2274062Y2678938D01*
X2264867Y2668422D01*
X2257094Y2656840D01*
G37*
G36*
X2393950Y2647950D02*
G01*
X2446274Y2647950D01*
X2441905Y2656840D01*
X2434132Y2668422D01*
X2424938Y2678938D01*
X2414422Y2688132D01*
X2402840Y2695905D01*
X2393950Y2700274D01*
G37*
G36*
X63500Y2750820D02*
G01*
X77419Y2751734D01*
X91135Y2754426D01*
X104343Y2758948D01*
X116839Y2765094D01*
X128422Y2772867D01*
X138938Y2782062D01*
X148132Y2792577D01*
X155905Y2804160D01*
X162052Y2816656D01*
X166573Y2829864D01*
X169265Y2843580D01*
X170180Y2857500D01*
X169265Y2871419D01*
X166573Y2885135D01*
X162052Y2898343D01*
X155905Y2910840D01*
X148132Y2922422D01*
X138938Y2932938D01*
X128422Y2942132D01*
X116839Y2949905D01*
X104343Y2956052D01*
X91135Y2960573D01*
X77419Y2963265D01*
X63500Y2964180D01*
X49580Y2963265D01*
X35864Y2960573D01*
X22656Y2956052D01*
X10160Y2949905D01*
X-1422Y2942132D01*
X-11938Y2932938D01*
X-21132Y2922422D01*
X-28905Y2910840D01*
X-35052Y2898343D01*
X-39573Y2885135D01*
X-42265Y2871419D01*
X-43180Y2857500D01*
X-42265Y2843580D01*
X-39573Y2829864D01*
X-35052Y2816656D01*
X-28905Y2804160D01*
X-21132Y2792577D01*
X-11938Y2782062D01*
X-1422Y2772867D01*
X10160Y2765094D01*
X22656Y2758948D01*
X35864Y2754426D01*
X49580Y2751734D01*
G37*
G36*
X2349500Y2750820D02*
G01*
X2363419Y2751734D01*
X2377135Y2754426D01*
X2390343Y2758948D01*
X2402840Y2765094D01*
X2414422Y2772867D01*
X2424938Y2782062D01*
X2434132Y2792577D01*
X2441905Y2804160D01*
X2448052Y2816656D01*
X2452573Y2829864D01*
X2455265Y2843580D01*
X2456180Y2857500D01*
X2455265Y2871419D01*
X2452573Y2885135D01*
X2448052Y2898343D01*
X2441905Y2910840D01*
X2434132Y2922422D01*
X2424938Y2932938D01*
X2414422Y2942132D01*
X2402840Y2949905D01*
X2390343Y2956052D01*
X2377135Y2960573D01*
X2363419Y2963265D01*
X2349500Y2964180D01*
X2335580Y2963265D01*
X2321864Y2960573D01*
X2308656Y2956052D01*
X2296160Y2949905D01*
X2284577Y2942132D01*
X2274062Y2932938D01*
X2264867Y2922422D01*
X2257094Y2910840D01*
X2250948Y2898343D01*
X2246426Y2885135D01*
X2243734Y2871419D01*
X2242820Y2857500D01*
X2243734Y2843580D01*
X2246426Y2829864D01*
X2250948Y2816656D01*
X2257094Y2804160D01*
X2264867Y2792577D01*
X2274062Y2782062D01*
X2284577Y2772867D01*
X2296160Y2765094D01*
X2308656Y2758948D01*
X2321864Y2754426D01*
X2335580Y2751734D01*
G37*
G36*
X825500Y2787040D02*
G01*
X836523Y2787904D01*
X847293Y2790494D01*
X857503Y2794711D01*
X866902Y2800502D01*
X875334Y2807665D01*
X882497Y2816098D01*
X888288Y2825496D01*
X892505Y2835706D01*
X895096Y2846476D01*
X896112Y2849067D01*
X897788Y2851302D01*
X1055116Y3008579D01*
X1058519Y3012338D01*
X1061466Y3016148D01*
X1064056Y3020263D01*
X1066292Y3024530D01*
X1068171Y3029000D01*
X1069594Y3033623D01*
X1070660Y3038348D01*
X1071270Y3043174D01*
X1071524Y3048203D01*
X1071524Y4862322D01*
X1072286Y4866182D01*
X1074470Y4869484D01*
X1226515Y5021529D01*
X1229817Y5023713D01*
X1233678Y5024475D01*
X1540764Y5024475D01*
X1543507Y5024120D01*
X1546047Y5023002D01*
X1555496Y5017211D01*
X1565706Y5012994D01*
X1576476Y5010404D01*
X1587500Y5009540D01*
X1598523Y5010404D01*
X1609293Y5012994D01*
X1619504Y5017211D01*
X1628901Y5023002D01*
X1637334Y5030165D01*
X1644497Y5038598D01*
X1650288Y5047996D01*
X1654505Y5058206D01*
X1657096Y5068976D01*
X1657959Y5080000D01*
X1657096Y5091023D01*
X1654505Y5101793D01*
X1650288Y5112004D01*
X1644497Y5121402D01*
X1637334Y5129834D01*
X1628901Y5136997D01*
X1619504Y5142788D01*
X1609293Y5147005D01*
X1598523Y5149596D01*
X1587500Y5150459D01*
X1576476Y5149596D01*
X1565706Y5147005D01*
X1555496Y5142788D01*
X1546047Y5136997D01*
X1543507Y5135880D01*
X1540764Y5135524D01*
X1206703Y5135524D01*
X1201674Y5135270D01*
X1196848Y5134660D01*
X1192123Y5133594D01*
X1187500Y5132171D01*
X1183030Y5130292D01*
X1178763Y5128056D01*
X1174648Y5125466D01*
X1170838Y5122519D01*
X1167079Y5119116D01*
X976884Y4928920D01*
X973480Y4925161D01*
X970534Y4921351D01*
X967943Y4917236D01*
X965708Y4912969D01*
X963828Y4908499D01*
X962406Y4903876D01*
X961339Y4899152D01*
X960729Y4894326D01*
X960475Y4889296D01*
X960475Y3075178D01*
X959713Y3071317D01*
X957529Y3068015D01*
X819302Y2929788D01*
X817067Y2928112D01*
X814476Y2927096D01*
X803706Y2924505D01*
X793496Y2920288D01*
X784098Y2914497D01*
X775665Y2907334D01*
X768502Y2898902D01*
X762711Y2889504D01*
X758494Y2879293D01*
X755904Y2868523D01*
X755040Y2857500D01*
X755904Y2846476D01*
X758494Y2835706D01*
X762711Y2825496D01*
X768502Y2816098D01*
X775665Y2807665D01*
X784098Y2800502D01*
X793496Y2794711D01*
X803706Y2790494D01*
X814476Y2787904D01*
G37*
G36*
X1587500Y2790494D02*
G01*
X1602943Y2791409D01*
X1618132Y2794152D01*
X1632915Y2798673D01*
X1647088Y2804922D01*
X1660398Y2812796D01*
X1672691Y2822143D01*
X1683766Y2832912D01*
X1693519Y2844901D01*
X1702206Y2858770D01*
X1705254Y2861868D01*
X1709318Y2863443D01*
X1713636Y2863138D01*
X1717446Y2861106D01*
X1720088Y2857601D01*
X1721002Y2853385D01*
X1721002Y2821482D01*
X1721612Y2815082D01*
X1723339Y2809341D01*
X1726184Y2804058D01*
X1729943Y2799486D01*
X1734566Y2795676D01*
X1739849Y2792882D01*
X1745538Y2791104D01*
X1751990Y2790494D01*
X1931009Y2790494D01*
X1937461Y2791104D01*
X1943150Y2792882D01*
X1948434Y2795676D01*
X1953056Y2799486D01*
X1956816Y2804058D01*
X1959660Y2809341D01*
X1961388Y2815082D01*
X1961997Y2821482D01*
X1961997Y3020517D01*
X1961388Y3026918D01*
X1959660Y3032658D01*
X1956816Y3037941D01*
X1953056Y3042513D01*
X1948434Y3046323D01*
X1943150Y3049117D01*
X1937461Y3050895D01*
X1931009Y3051505D01*
X1751990Y3051505D01*
X1745538Y3050895D01*
X1739849Y3049117D01*
X1734566Y3046323D01*
X1729943Y3042513D01*
X1726184Y3037941D01*
X1723339Y3032658D01*
X1721612Y3026918D01*
X1721002Y3020517D01*
X1721002Y2988157D01*
X1720037Y2983839D01*
X1717293Y2980334D01*
X1713382Y2978302D01*
X1708912Y2978150D01*
X1704848Y2979928D01*
X1701952Y2983230D01*
X1697837Y2990646D01*
X1688846Y3003245D01*
X1678381Y3014624D01*
X1666697Y3024733D01*
X1653844Y3033369D01*
X1640128Y3040430D01*
X1625600Y3045815D01*
X1610563Y3049422D01*
X1595221Y3051251D01*
X1579778Y3051251D01*
X1564436Y3049422D01*
X1549400Y3045815D01*
X1534922Y3040430D01*
X1521155Y3033369D01*
X1508302Y3024733D01*
X1496618Y3014624D01*
X1486154Y3003245D01*
X1477162Y2990646D01*
X1469694Y2977134D01*
X1463903Y2962808D01*
X1459788Y2947873D01*
X1457502Y2932582D01*
X1457045Y2917139D01*
X1458417Y2901746D01*
X1461617Y2886608D01*
X1466596Y2871978D01*
X1473250Y2858008D01*
X1481480Y2844901D01*
X1491234Y2832912D01*
X1502308Y2822143D01*
X1514602Y2812796D01*
X1527911Y2804922D01*
X1542084Y2798673D01*
X1556867Y2794152D01*
X1572056Y2791409D01*
G37*
G36*
X63500Y3004820D02*
G01*
X77419Y3005734D01*
X91135Y3008426D01*
X104343Y3012948D01*
X116839Y3019094D01*
X128422Y3026867D01*
X138938Y3036062D01*
X148132Y3046577D01*
X155905Y3058160D01*
X162052Y3070656D01*
X166573Y3083864D01*
X169265Y3097580D01*
X170180Y3111500D01*
X169265Y3125419D01*
X166573Y3139135D01*
X162052Y3152343D01*
X155905Y3164840D01*
X148132Y3176422D01*
X138938Y3186938D01*
X128422Y3196132D01*
X116839Y3203905D01*
X104343Y3210052D01*
X91135Y3214573D01*
X77419Y3217265D01*
X63500Y3218180D01*
X49580Y3217265D01*
X35864Y3214573D01*
X22656Y3210052D01*
X10160Y3203905D01*
X-1422Y3196132D01*
X-11938Y3186938D01*
X-21132Y3176422D01*
X-28905Y3164840D01*
X-35052Y3152343D01*
X-39573Y3139135D01*
X-42265Y3125419D01*
X-43180Y3111500D01*
X-42265Y3097580D01*
X-39573Y3083864D01*
X-35052Y3070656D01*
X-28905Y3058160D01*
X-21132Y3046577D01*
X-11938Y3036062D01*
X-1422Y3026867D01*
X10160Y3019094D01*
X22656Y3012948D01*
X35864Y3008426D01*
X49580Y3005734D01*
G37*
G36*
X2349500Y3004820D02*
G01*
X2363419Y3005734D01*
X2377135Y3008426D01*
X2390343Y3012948D01*
X2402840Y3019094D01*
X2414422Y3026867D01*
X2424938Y3036062D01*
X2434132Y3046577D01*
X2441905Y3058160D01*
X2448052Y3070656D01*
X2452573Y3083864D01*
X2455265Y3097580D01*
X2456180Y3111500D01*
X2455265Y3125419D01*
X2452573Y3139135D01*
X2448052Y3152343D01*
X2441905Y3164840D01*
X2434132Y3176422D01*
X2424938Y3186938D01*
X2414422Y3196132D01*
X2402840Y3203905D01*
X2390343Y3210052D01*
X2377135Y3214573D01*
X2363419Y3217265D01*
X2349500Y3218180D01*
X2335580Y3217265D01*
X2321864Y3214573D01*
X2308656Y3210052D01*
X2296160Y3203905D01*
X2284577Y3196132D01*
X2274062Y3186938D01*
X2264867Y3176422D01*
X2257094Y3164840D01*
X2250948Y3152343D01*
X2246426Y3139135D01*
X2243734Y3125419D01*
X2242820Y3111500D01*
X2243734Y3097580D01*
X2246426Y3083864D01*
X2250948Y3070656D01*
X2257094Y3058160D01*
X2264867Y3046577D01*
X2274062Y3036062D01*
X2284577Y3026867D01*
X2296160Y3019094D01*
X2308656Y3012948D01*
X2321864Y3008426D01*
X2335580Y3005734D01*
G37*
G36*
X508000Y3114040D02*
G01*
X522985Y3114954D01*
X537768Y3117646D01*
X552145Y3122117D01*
X565861Y3128264D01*
X578713Y3136087D01*
X590550Y3145332D01*
X601167Y3155950D01*
X610412Y3167786D01*
X618236Y3180638D01*
X624382Y3194354D01*
X628853Y3208731D01*
X631545Y3223514D01*
X632460Y3238500D01*
X631545Y3253486D01*
X628853Y3268268D01*
X624382Y3282645D01*
X618236Y3296361D01*
X610412Y3309213D01*
X601167Y3321050D01*
X590550Y3331667D01*
X578713Y3340912D01*
X565861Y3348736D01*
X552145Y3354882D01*
X537768Y3359353D01*
X522985Y3362045D01*
X508000Y3362960D01*
X493014Y3362045D01*
X478231Y3359353D01*
X463854Y3354882D01*
X450138Y3348736D01*
X437286Y3340912D01*
X425450Y3331667D01*
X414832Y3321050D01*
X405587Y3309213D01*
X397764Y3296361D01*
X391617Y3282645D01*
X387146Y3268268D01*
X384454Y3253486D01*
X383540Y3238500D01*
X384454Y3223514D01*
X387146Y3208731D01*
X391617Y3194354D01*
X397764Y3180638D01*
X405587Y3167786D01*
X414832Y3155950D01*
X425450Y3145332D01*
X437286Y3136087D01*
X450138Y3128264D01*
X463854Y3122117D01*
X478231Y3117646D01*
X493014Y3114954D01*
G37*
G36*
X63500Y3258820D02*
G01*
X77419Y3259734D01*
X91135Y3262426D01*
X104343Y3266948D01*
X116839Y3273094D01*
X128422Y3280867D01*
X138938Y3290062D01*
X148132Y3300577D01*
X155905Y3312160D01*
X162052Y3324656D01*
X166573Y3337864D01*
X169265Y3351580D01*
X170180Y3365500D01*
X169265Y3379419D01*
X166573Y3393135D01*
X162052Y3406343D01*
X155905Y3418840D01*
X148132Y3430422D01*
X138938Y3440937D01*
X128422Y3450132D01*
X116839Y3457905D01*
X104343Y3464051D01*
X91135Y3468573D01*
X77419Y3471265D01*
X63500Y3472179D01*
X49580Y3471265D01*
X35864Y3468573D01*
X22656Y3464051D01*
X10160Y3457905D01*
X-1422Y3450132D01*
X-11938Y3440937D01*
X-21132Y3430422D01*
X-28905Y3418840D01*
X-35052Y3406343D01*
X-39573Y3393135D01*
X-42265Y3379419D01*
X-43180Y3365500D01*
X-42265Y3351580D01*
X-39573Y3337864D01*
X-35052Y3324656D01*
X-28905Y3312160D01*
X-21132Y3300577D01*
X-11938Y3290062D01*
X-1422Y3280867D01*
X10160Y3273094D01*
X22656Y3266948D01*
X35864Y3262426D01*
X49580Y3259734D01*
G37*
G36*
X2349500Y3258820D02*
G01*
X2363419Y3259734D01*
X2377135Y3262426D01*
X2390343Y3266948D01*
X2402840Y3273094D01*
X2414422Y3280867D01*
X2424938Y3290062D01*
X2434132Y3300577D01*
X2441905Y3312160D01*
X2448052Y3324656D01*
X2452573Y3337864D01*
X2455265Y3351580D01*
X2456180Y3365500D01*
X2455265Y3379419D01*
X2452573Y3393135D01*
X2448052Y3406343D01*
X2441905Y3418840D01*
X2434132Y3430422D01*
X2424938Y3440937D01*
X2414422Y3450132D01*
X2402840Y3457905D01*
X2390343Y3464051D01*
X2377135Y3468573D01*
X2363419Y3471265D01*
X2349500Y3472179D01*
X2335580Y3471265D01*
X2321864Y3468573D01*
X2308656Y3464051D01*
X2296160Y3457905D01*
X2284577Y3450132D01*
X2274062Y3440937D01*
X2264867Y3430422D01*
X2257094Y3418840D01*
X2250948Y3406343D01*
X2246426Y3393135D01*
X2243734Y3379419D01*
X2242820Y3365500D01*
X2243734Y3351580D01*
X2246426Y3337864D01*
X2250948Y3324656D01*
X2257094Y3312160D01*
X2264867Y3300577D01*
X2274062Y3290062D01*
X2284577Y3280867D01*
X2296160Y3273094D01*
X2308656Y3266948D01*
X2321864Y3262426D01*
X2335580Y3259734D01*
G37*
G36*
X2032000Y3495040D02*
G01*
X2046986Y3495954D01*
X2061768Y3498646D01*
X2076145Y3503117D01*
X2089861Y3509264D01*
X2102713Y3517087D01*
X2114550Y3526332D01*
X2125167Y3536950D01*
X2134412Y3548786D01*
X2142236Y3561638D01*
X2148382Y3575354D01*
X2152853Y3589731D01*
X2155545Y3604514D01*
X2156460Y3619500D01*
X2155545Y3634486D01*
X2152853Y3649268D01*
X2148382Y3663645D01*
X2142236Y3677361D01*
X2134412Y3690213D01*
X2125167Y3702050D01*
X2114550Y3712667D01*
X2102713Y3721912D01*
X2089861Y3729736D01*
X2076145Y3735882D01*
X2061768Y3740353D01*
X2046986Y3743045D01*
X2032000Y3743960D01*
X2017014Y3743045D01*
X2002231Y3740353D01*
X1987854Y3735882D01*
X1974138Y3729736D01*
X1961286Y3721912D01*
X1949450Y3712667D01*
X1938832Y3702050D01*
X1929587Y3690213D01*
X1921764Y3677361D01*
X1915617Y3663645D01*
X1911146Y3649268D01*
X1908454Y3634486D01*
X1907539Y3619500D01*
X1908454Y3604514D01*
X1911146Y3589731D01*
X1915617Y3575354D01*
X1921764Y3561638D01*
X1929587Y3548786D01*
X1938832Y3536950D01*
X1949450Y3526332D01*
X1961286Y3517087D01*
X1974138Y3509264D01*
X1987854Y3503117D01*
X2002231Y3498646D01*
X2017014Y3495954D01*
G37*
G36*
X1270000Y3495040D02*
G01*
X1284986Y3495954D01*
X1299768Y3498646D01*
X1314145Y3503117D01*
X1327861Y3509264D01*
X1340713Y3517087D01*
X1352550Y3526332D01*
X1363167Y3536950D01*
X1372412Y3548786D01*
X1380236Y3561638D01*
X1386382Y3575354D01*
X1390853Y3589731D01*
X1393545Y3604514D01*
X1394460Y3619500D01*
X1393545Y3634486D01*
X1390853Y3649268D01*
X1386382Y3663645D01*
X1380236Y3677361D01*
X1372412Y3690213D01*
X1363167Y3702050D01*
X1352550Y3712667D01*
X1340713Y3721912D01*
X1327861Y3729736D01*
X1314145Y3735882D01*
X1299768Y3740353D01*
X1284986Y3743045D01*
X1270000Y3743960D01*
X1255014Y3743045D01*
X1240231Y3740353D01*
X1225854Y3735882D01*
X1212138Y3729736D01*
X1199286Y3721912D01*
X1187450Y3712667D01*
X1176832Y3702050D01*
X1167587Y3690213D01*
X1159764Y3677361D01*
X1153617Y3663645D01*
X1149146Y3649268D01*
X1146454Y3634486D01*
X1145540Y3619500D01*
X1146454Y3604514D01*
X1149146Y3589731D01*
X1153617Y3575354D01*
X1159764Y3561638D01*
X1167587Y3548786D01*
X1176832Y3536950D01*
X1187450Y3526332D01*
X1199286Y3517087D01*
X1212138Y3509264D01*
X1225854Y3503117D01*
X1240231Y3498646D01*
X1255014Y3495954D01*
G37*
G36*
X63500Y3512820D02*
G01*
X77419Y3513734D01*
X91135Y3516426D01*
X104343Y3520948D01*
X116839Y3527094D01*
X128422Y3534867D01*
X138938Y3544062D01*
X148132Y3554577D01*
X155905Y3566160D01*
X162052Y3578656D01*
X166573Y3591864D01*
X169265Y3605580D01*
X170180Y3619500D01*
X169265Y3633419D01*
X166573Y3647135D01*
X162052Y3660343D01*
X155905Y3672840D01*
X148132Y3684422D01*
X138938Y3694937D01*
X128422Y3704132D01*
X116839Y3711905D01*
X104343Y3718051D01*
X91135Y3722573D01*
X77419Y3725265D01*
X63500Y3726179D01*
X49580Y3725265D01*
X35864Y3722573D01*
X22656Y3718051D01*
X10160Y3711905D01*
X-1422Y3704132D01*
X-11938Y3694937D01*
X-21132Y3684422D01*
X-28905Y3672840D01*
X-35052Y3660343D01*
X-39573Y3647135D01*
X-42265Y3633419D01*
X-43180Y3619500D01*
X-42265Y3605580D01*
X-39573Y3591864D01*
X-35052Y3578656D01*
X-28905Y3566160D01*
X-21132Y3554577D01*
X-11938Y3544062D01*
X-1422Y3534867D01*
X10160Y3527094D01*
X22656Y3520948D01*
X35864Y3516426D01*
X49580Y3513734D01*
G37*
G36*
X2349500Y3512820D02*
G01*
X2363419Y3513734D01*
X2377135Y3516426D01*
X2390343Y3520948D01*
X2402840Y3527094D01*
X2414422Y3534867D01*
X2424938Y3544062D01*
X2434132Y3554577D01*
X2441905Y3566160D01*
X2448052Y3578656D01*
X2452573Y3591864D01*
X2455265Y3605580D01*
X2456180Y3619500D01*
X2455265Y3633419D01*
X2452573Y3647135D01*
X2448052Y3660343D01*
X2441905Y3672840D01*
X2434132Y3684422D01*
X2424938Y3694937D01*
X2414422Y3704132D01*
X2402840Y3711905D01*
X2390343Y3718051D01*
X2377135Y3722573D01*
X2363419Y3725265D01*
X2349500Y3726179D01*
X2335580Y3725265D01*
X2321864Y3722573D01*
X2308656Y3718051D01*
X2296160Y3711905D01*
X2284577Y3704132D01*
X2274062Y3694937D01*
X2264867Y3684422D01*
X2257094Y3672840D01*
X2250948Y3660343D01*
X2246426Y3647135D01*
X2243734Y3633419D01*
X2242820Y3619500D01*
X2243734Y3605580D01*
X2246426Y3591864D01*
X2250948Y3578656D01*
X2257094Y3566160D01*
X2264867Y3554577D01*
X2274062Y3544062D01*
X2284577Y3534867D01*
X2296160Y3527094D01*
X2308656Y3520948D01*
X2321864Y3516426D01*
X2335580Y3513734D01*
G37*
G36*
X2349500Y3766820D02*
G01*
X2363419Y3767734D01*
X2377135Y3770426D01*
X2390343Y3774948D01*
X2402840Y3781094D01*
X2414422Y3788867D01*
X2424938Y3798062D01*
X2434132Y3808577D01*
X2441905Y3820160D01*
X2448052Y3832656D01*
X2452573Y3845864D01*
X2455265Y3859580D01*
X2456180Y3873500D01*
X2455265Y3887419D01*
X2452573Y3901135D01*
X2448052Y3914343D01*
X2441905Y3926840D01*
X2434132Y3938422D01*
X2424938Y3948937D01*
X2414422Y3958132D01*
X2402840Y3965905D01*
X2390343Y3972051D01*
X2377135Y3976573D01*
X2363419Y3979265D01*
X2349500Y3980179D01*
X2335580Y3979265D01*
X2321864Y3976573D01*
X2308656Y3972051D01*
X2296160Y3965905D01*
X2284577Y3958132D01*
X2274062Y3948937D01*
X2264867Y3938422D01*
X2257094Y3926840D01*
X2250948Y3914343D01*
X2246426Y3901135D01*
X2243734Y3887419D01*
X2242820Y3873500D01*
X2243734Y3859580D01*
X2246426Y3845864D01*
X2250948Y3832656D01*
X2257094Y3820160D01*
X2264867Y3808577D01*
X2274062Y3798062D01*
X2284577Y3788867D01*
X2296160Y3781094D01*
X2308656Y3774948D01*
X2321864Y3770426D01*
X2335580Y3767734D01*
G37*
G36*
X107950Y3776726D02*
G01*
X116839Y3781094D01*
X128422Y3788867D01*
X138938Y3798062D01*
X148132Y3808577D01*
X155905Y3820160D01*
X160274Y3829050D01*
X107950Y3829050D01*
G37*
G36*
X19050Y3776726D02*
G01*
X19050Y3829050D01*
X-33274Y3829050D01*
X-28905Y3820160D01*
X-21132Y3808577D01*
X-11938Y3798062D01*
X-1422Y3788867D01*
X10160Y3781094D01*
G37*
G36*
X1968500Y3812540D02*
G01*
X1983486Y3813454D01*
X1998268Y3816146D01*
X2012645Y3820617D01*
X2026361Y3826764D01*
X2039213Y3834587D01*
X2051050Y3843832D01*
X2061667Y3854450D01*
X2070912Y3866286D01*
X2078736Y3879138D01*
X2084882Y3892854D01*
X2089353Y3907231D01*
X2092045Y3922014D01*
X2092960Y3937000D01*
X2092045Y3951986D01*
X2089353Y3966768D01*
X2084882Y3981145D01*
X2078736Y3994861D01*
X2070912Y4007713D01*
X2061667Y4019550D01*
X2051050Y4030167D01*
X2039213Y4039412D01*
X2026361Y4047236D01*
X2012645Y4053382D01*
X1998268Y4057853D01*
X1983486Y4060545D01*
X1968500Y4061460D01*
X1953514Y4060545D01*
X1938731Y4057853D01*
X1924354Y4053382D01*
X1910638Y4047236D01*
X1897786Y4039412D01*
X1885950Y4030167D01*
X1875332Y4019550D01*
X1866087Y4007713D01*
X1858264Y3994861D01*
X1852117Y3981145D01*
X1847646Y3966768D01*
X1844954Y3951986D01*
X1844039Y3937000D01*
X1844954Y3922014D01*
X1847646Y3907231D01*
X1852117Y3892854D01*
X1858264Y3879138D01*
X1866087Y3866286D01*
X1875332Y3854450D01*
X1885950Y3843832D01*
X1897786Y3834587D01*
X1910638Y3826764D01*
X1924354Y3820617D01*
X1938731Y3816146D01*
X1953514Y3813454D01*
G37*
G36*
X1180490Y3869994D02*
G01*
X1359509Y3869994D01*
X1365961Y3870604D01*
X1371650Y3872382D01*
X1376934Y3875176D01*
X1381556Y3878986D01*
X1385316Y3883558D01*
X1388160Y3888841D01*
X1389888Y3894582D01*
X1390497Y3900982D01*
X1390497Y3933342D01*
X1391462Y3937660D01*
X1394206Y3941165D01*
X1398117Y3943197D01*
X1402588Y3943350D01*
X1406652Y3941572D01*
X1409547Y3938270D01*
X1413662Y3930853D01*
X1422654Y3918254D01*
X1433118Y3906875D01*
X1444802Y3896766D01*
X1457655Y3888130D01*
X1467662Y3882999D01*
X1467662Y3944162D01*
X1400657Y3944162D01*
X1396796Y3944924D01*
X1393494Y3947109D01*
X1391259Y3950411D01*
X1390497Y3954322D01*
X1390497Y4046677D01*
X1391259Y4050588D01*
X1393494Y4053890D01*
X1396796Y4056075D01*
X1400657Y4056837D01*
X1467662Y4056837D01*
X1467662Y4118000D01*
X1464411Y4116578D01*
X1451102Y4108704D01*
X1438808Y4099356D01*
X1427734Y4088587D01*
X1417980Y4076598D01*
X1409293Y4062729D01*
X1406245Y4059631D01*
X1402181Y4058056D01*
X1397863Y4058361D01*
X1394053Y4060393D01*
X1391412Y4063847D01*
X1390497Y4068114D01*
X1390497Y4100017D01*
X1389888Y4106418D01*
X1388160Y4112158D01*
X1385316Y4117441D01*
X1381556Y4122013D01*
X1376934Y4125823D01*
X1371650Y4128617D01*
X1365961Y4130395D01*
X1359509Y4131005D01*
X1180490Y4131005D01*
X1174038Y4130395D01*
X1168349Y4128617D01*
X1163066Y4125823D01*
X1158443Y4122013D01*
X1154684Y4117441D01*
X1151839Y4112158D01*
X1150112Y4106418D01*
X1149502Y4100017D01*
X1149502Y3900982D01*
X1150112Y3894582D01*
X1151839Y3888841D01*
X1154684Y3883558D01*
X1158443Y3878986D01*
X1163066Y3875176D01*
X1168349Y3872382D01*
X1174038Y3870604D01*
G37*
G36*
X418490Y3869994D02*
G01*
X597509Y3869994D01*
X603961Y3870604D01*
X609650Y3872382D01*
X614934Y3875176D01*
X619556Y3878986D01*
X623316Y3883558D01*
X626160Y3888841D01*
X627888Y3894582D01*
X628497Y3900982D01*
X628497Y3933342D01*
X629462Y3937660D01*
X632206Y3941165D01*
X636117Y3943197D01*
X640588Y3943350D01*
X644652Y3941572D01*
X647547Y3938270D01*
X651662Y3930853D01*
X660654Y3918254D01*
X671118Y3906875D01*
X682802Y3896766D01*
X695655Y3888130D01*
X709422Y3881069D01*
X723900Y3875684D01*
X738936Y3872077D01*
X754278Y3870248D01*
X769721Y3870248D01*
X785063Y3872077D01*
X800100Y3875684D01*
X814628Y3881069D01*
X828344Y3888130D01*
X841197Y3896766D01*
X852881Y3906875D01*
X863346Y3918254D01*
X872337Y3930853D01*
X879805Y3944365D01*
X885596Y3958691D01*
X889711Y3973626D01*
X891997Y3988917D01*
X892454Y4004360D01*
X891082Y4019753D01*
X887882Y4034891D01*
X882903Y4049522D01*
X876300Y4063492D01*
X868019Y4076547D01*
X858266Y4088587D01*
X847191Y4099356D01*
X834898Y4108704D01*
X821588Y4116578D01*
X807415Y4122826D01*
X792632Y4127347D01*
X777443Y4130090D01*
X762000Y4131005D01*
X746556Y4130090D01*
X731367Y4127347D01*
X716584Y4122826D01*
X702411Y4116578D01*
X689102Y4108704D01*
X676808Y4099356D01*
X665734Y4088587D01*
X655980Y4076598D01*
X647293Y4062729D01*
X644245Y4059631D01*
X640181Y4058056D01*
X635863Y4058361D01*
X632053Y4060393D01*
X629412Y4063847D01*
X628497Y4068114D01*
X628497Y4100017D01*
X627888Y4106418D01*
X626160Y4112158D01*
X623316Y4117441D01*
X619556Y4122013D01*
X614934Y4125823D01*
X609650Y4128617D01*
X603961Y4130395D01*
X597509Y4131005D01*
X418490Y4131005D01*
X412038Y4130395D01*
X406349Y4128617D01*
X401066Y4125823D01*
X396443Y4122013D01*
X392684Y4117441D01*
X389839Y4112158D01*
X388112Y4106418D01*
X387502Y4100017D01*
X387502Y3900982D01*
X388112Y3894582D01*
X389839Y3888841D01*
X392684Y3883558D01*
X396443Y3878986D01*
X401066Y3875176D01*
X406349Y3872382D01*
X412038Y3870604D01*
G37*
G36*
X1580337Y3882999D02*
G01*
X1590344Y3888130D01*
X1603197Y3896766D01*
X1614881Y3906875D01*
X1625346Y3918254D01*
X1634337Y3930853D01*
X1641703Y3944162D01*
X1580337Y3944162D01*
G37*
G36*
X107950Y3917950D02*
G01*
X160274Y3917950D01*
X155905Y3926840D01*
X148132Y3938422D01*
X138938Y3948937D01*
X128422Y3958132D01*
X116839Y3965905D01*
X107950Y3970274D01*
G37*
G36*
X-33274Y3917950D02*
G01*
X19050Y3917950D01*
X19050Y3970274D01*
X10160Y3965905D01*
X-1422Y3958132D01*
X-11938Y3948937D01*
X-21132Y3938422D01*
X-28905Y3926840D01*
G37*
G36*
X63500Y4020820D02*
G01*
X77419Y4021734D01*
X91135Y4024426D01*
X104343Y4028948D01*
X116839Y4035094D01*
X128422Y4042867D01*
X138938Y4052062D01*
X148132Y4062577D01*
X155905Y4074160D01*
X162052Y4086656D01*
X166573Y4099864D01*
X169265Y4113580D01*
X170180Y4127500D01*
X169265Y4141419D01*
X166573Y4155135D01*
X162052Y4168343D01*
X155905Y4180840D01*
X148132Y4192422D01*
X138938Y4202938D01*
X128422Y4212132D01*
X116839Y4219905D01*
X104343Y4226052D01*
X91135Y4230573D01*
X77419Y4233265D01*
X63500Y4234180D01*
X49580Y4233265D01*
X35864Y4230573D01*
X22656Y4226052D01*
X10160Y4219905D01*
X-1422Y4212132D01*
X-11938Y4202938D01*
X-21132Y4192422D01*
X-28905Y4180840D01*
X-35052Y4168343D01*
X-39573Y4155135D01*
X-42265Y4141419D01*
X-43180Y4127500D01*
X-42265Y4113580D01*
X-39573Y4099864D01*
X-35052Y4086656D01*
X-28905Y4074160D01*
X-21132Y4062577D01*
X-11938Y4052062D01*
X-1422Y4042867D01*
X10160Y4035094D01*
X22656Y4028948D01*
X35864Y4024426D01*
X49580Y4021734D01*
G37*
G36*
X2349500Y4020820D02*
G01*
X2363419Y4021734D01*
X2377135Y4024426D01*
X2390343Y4028948D01*
X2402840Y4035094D01*
X2414422Y4042867D01*
X2424938Y4052062D01*
X2434132Y4062577D01*
X2441905Y4074160D01*
X2448052Y4086656D01*
X2452573Y4099864D01*
X2455265Y4113580D01*
X2456180Y4127500D01*
X2455265Y4141419D01*
X2452573Y4155135D01*
X2448052Y4168343D01*
X2441905Y4180840D01*
X2434132Y4192422D01*
X2424938Y4202938D01*
X2414422Y4212132D01*
X2402840Y4219905D01*
X2390343Y4226052D01*
X2377135Y4230573D01*
X2363419Y4233265D01*
X2349500Y4234180D01*
X2335580Y4233265D01*
X2321864Y4230573D01*
X2308656Y4226052D01*
X2296160Y4219905D01*
X2284577Y4212132D01*
X2274062Y4202938D01*
X2264867Y4192422D01*
X2257094Y4180840D01*
X2250948Y4168343D01*
X2246426Y4155135D01*
X2243734Y4141419D01*
X2242820Y4127500D01*
X2243734Y4113580D01*
X2246426Y4099864D01*
X2250948Y4086656D01*
X2257094Y4074160D01*
X2264867Y4062577D01*
X2274062Y4052062D01*
X2284577Y4042867D01*
X2296160Y4035094D01*
X2308656Y4028948D01*
X2321864Y4024426D01*
X2335580Y4021734D01*
G37*
G36*
X1580337Y4056837D02*
G01*
X1641449Y4056837D01*
X1638300Y4063492D01*
X1630019Y4076547D01*
X1620266Y4088587D01*
X1609191Y4099356D01*
X1596898Y4108704D01*
X1583588Y4116578D01*
X1580337Y4118000D01*
G37*
G36*
X1968500Y4574540D02*
G01*
X1983486Y4575454D01*
X1998268Y4578146D01*
X2012645Y4582617D01*
X2026361Y4588764D01*
X2039213Y4596587D01*
X2051050Y4605832D01*
X2061667Y4616450D01*
X2070912Y4628286D01*
X2078736Y4641138D01*
X2084882Y4654854D01*
X2089353Y4669231D01*
X2092045Y4684014D01*
X2092960Y4699000D01*
X2092045Y4713986D01*
X2089353Y4728768D01*
X2084882Y4743145D01*
X2078736Y4756861D01*
X2070912Y4769713D01*
X2061667Y4781550D01*
X2051050Y4792167D01*
X2039213Y4801412D01*
X2026361Y4809236D01*
X2012645Y4815382D01*
X1998268Y4819853D01*
X1983486Y4822545D01*
X1968500Y4823460D01*
X1953514Y4822545D01*
X1938731Y4819853D01*
X1924354Y4815382D01*
X1910638Y4809236D01*
X1897786Y4801412D01*
X1885950Y4792167D01*
X1875332Y4781550D01*
X1866087Y4769713D01*
X1858264Y4756861D01*
X1852117Y4743145D01*
X1847646Y4728768D01*
X1844954Y4713986D01*
X1844039Y4699000D01*
X1844954Y4684014D01*
X1847646Y4669231D01*
X1852117Y4654854D01*
X1858264Y4641138D01*
X1866087Y4628286D01*
X1875332Y4616450D01*
X1885950Y4605832D01*
X1897786Y4596587D01*
X1910638Y4588764D01*
X1924354Y4582617D01*
X1938731Y4578146D01*
X1953514Y4575454D01*
G37*
G36*
X500278Y4632248D02*
G01*
X515721Y4632248D01*
X531063Y4634077D01*
X546100Y4637684D01*
X560628Y4643069D01*
X574344Y4650130D01*
X587197Y4658766D01*
X598881Y4668875D01*
X609346Y4680254D01*
X618337Y4692853D01*
X626110Y4706924D01*
X628954Y4710176D01*
X632002Y4711547D01*
X631444Y4712360D01*
X630631Y4716272D01*
X631596Y4720691D01*
X635711Y4735626D01*
X637997Y4750917D01*
X638454Y4766360D01*
X637082Y4781753D01*
X633882Y4796891D01*
X630986Y4805426D01*
X630478Y4809236D01*
X631291Y4812944D01*
X628091Y4814976D01*
X625805Y4818024D01*
X622300Y4825492D01*
X614019Y4838547D01*
X604266Y4850587D01*
X593191Y4861356D01*
X580898Y4870704D01*
X567588Y4878578D01*
X553415Y4884826D01*
X538632Y4889347D01*
X523443Y4892090D01*
X508000Y4893005D01*
X492556Y4892090D01*
X477367Y4889347D01*
X462584Y4884826D01*
X448411Y4878578D01*
X435101Y4870704D01*
X422808Y4861356D01*
X411734Y4850587D01*
X401980Y4838547D01*
X393750Y4825492D01*
X387096Y4811522D01*
X382117Y4796891D01*
X378917Y4781753D01*
X377545Y4766360D01*
X378002Y4750917D01*
X380288Y4735626D01*
X384403Y4720691D01*
X390194Y4706366D01*
X397662Y4692853D01*
X406654Y4680254D01*
X417118Y4668875D01*
X428802Y4658766D01*
X441655Y4650130D01*
X455422Y4643069D01*
X469900Y4637684D01*
X484936Y4634077D01*
G37*
G36*
X1262278Y4632248D02*
G01*
X1277721Y4632248D01*
X1293063Y4634077D01*
X1308100Y4637684D01*
X1322628Y4643069D01*
X1336344Y4650130D01*
X1349197Y4658766D01*
X1360881Y4668875D01*
X1371346Y4680254D01*
X1380337Y4692853D01*
X1388110Y4706924D01*
X1390954Y4710176D01*
X1394866Y4711954D01*
X1399184Y4711954D01*
X1403096Y4710176D01*
X1405890Y4706924D01*
X1413662Y4692853D01*
X1422654Y4680254D01*
X1433118Y4668875D01*
X1444802Y4658766D01*
X1457655Y4650130D01*
X1471422Y4643069D01*
X1485900Y4637684D01*
X1500936Y4634077D01*
X1516278Y4632248D01*
X1531721Y4632248D01*
X1547063Y4634077D01*
X1562100Y4637684D01*
X1576628Y4643069D01*
X1590344Y4650130D01*
X1603197Y4658766D01*
X1614881Y4668875D01*
X1625346Y4680254D01*
X1634337Y4692853D01*
X1641805Y4706366D01*
X1647596Y4720691D01*
X1651711Y4735626D01*
X1653997Y4750917D01*
X1654454Y4766360D01*
X1653082Y4781753D01*
X1649882Y4796891D01*
X1644904Y4811522D01*
X1638300Y4825492D01*
X1630019Y4838547D01*
X1620266Y4850587D01*
X1609191Y4861356D01*
X1596898Y4870704D01*
X1583588Y4878578D01*
X1569415Y4884826D01*
X1554632Y4889347D01*
X1539443Y4892090D01*
X1524000Y4893005D01*
X1508556Y4892090D01*
X1493367Y4889347D01*
X1478584Y4884826D01*
X1464411Y4878578D01*
X1451102Y4870704D01*
X1438808Y4861356D01*
X1427734Y4850587D01*
X1417980Y4838547D01*
X1409750Y4825492D01*
X1406194Y4818024D01*
X1403908Y4814976D01*
X1400708Y4812944D01*
X1397000Y4812233D01*
X1393291Y4812944D01*
X1390091Y4814976D01*
X1387805Y4818024D01*
X1384300Y4825492D01*
X1376019Y4838547D01*
X1366266Y4850587D01*
X1355191Y4861356D01*
X1342898Y4870704D01*
X1329588Y4878578D01*
X1315415Y4884826D01*
X1300632Y4889347D01*
X1285443Y4892090D01*
X1270000Y4893005D01*
X1254556Y4892090D01*
X1239367Y4889347D01*
X1224584Y4884826D01*
X1210411Y4878578D01*
X1197102Y4870704D01*
X1184808Y4861356D01*
X1173734Y4850587D01*
X1163980Y4838547D01*
X1155750Y4825492D01*
X1149096Y4811522D01*
X1144117Y4796891D01*
X1140917Y4781753D01*
X1139545Y4766360D01*
X1140002Y4750917D01*
X1142288Y4735626D01*
X1146403Y4720691D01*
X1152194Y4706366D01*
X1159662Y4692853D01*
X1168654Y4680254D01*
X1179118Y4668875D01*
X1190802Y4658766D01*
X1203655Y4650130D01*
X1217422Y4643069D01*
X1231900Y4637684D01*
X1246936Y4634077D01*
G37*
G36*
X818337Y4644999D02*
G01*
X828344Y4650130D01*
X841197Y4658766D01*
X852881Y4668875D01*
X863346Y4680254D01*
X872337Y4692853D01*
X879703Y4706162D01*
X818337Y4706162D01*
G37*
G36*
X705662Y4644999D02*
G01*
X705662Y4706162D01*
X644296Y4706162D01*
X651662Y4692853D01*
X660654Y4680254D01*
X671118Y4668875D01*
X682802Y4658766D01*
X695655Y4650130D01*
G37*
G36*
X644550Y4818837D02*
G01*
X705662Y4818837D01*
X705662Y4880000D01*
X702411Y4878578D01*
X689102Y4870704D01*
X676808Y4861356D01*
X665734Y4850587D01*
X655980Y4838547D01*
X647750Y4825492D01*
G37*
G36*
X818337Y4818837D02*
G01*
X879449Y4818837D01*
X876300Y4825492D01*
X868019Y4838547D01*
X858266Y4850587D01*
X847191Y4861356D01*
X834898Y4870704D01*
X821588Y4878578D01*
X818337Y4880000D01*
G37*
G36*
X-14732Y5288229D02*
G01*
X141732Y5288229D01*
X148183Y5288889D01*
X153873Y5290616D01*
X159156Y5293410D01*
X163779Y5297220D01*
X167589Y5301843D01*
X170383Y5307126D01*
X172110Y5312816D01*
X172770Y5319268D01*
X172770Y5475732D01*
X172110Y5482183D01*
X170383Y5487873D01*
X167589Y5493156D01*
X163779Y5497779D01*
X159156Y5501589D01*
X153873Y5504383D01*
X148183Y5506110D01*
X141732Y5506770D01*
X-14732Y5506770D01*
X-21183Y5506110D01*
X-26873Y5504383D01*
X-32156Y5501589D01*
X-36779Y5497779D01*
X-40589Y5493156D01*
X-43383Y5487873D01*
X-45110Y5482183D01*
X-45770Y5475732D01*
X-45770Y5319268D01*
X-45110Y5312816D01*
X-43383Y5307126D01*
X-40589Y5301843D01*
X-36779Y5297220D01*
X-32156Y5293410D01*
X-26873Y5290616D01*
X-21183Y5288889D01*
G37*
G36*
X1509268Y5288229D02*
G01*
X1665732Y5288229D01*
X1672183Y5288889D01*
X1677873Y5290616D01*
X1683156Y5293410D01*
X1687779Y5297220D01*
X1691589Y5301843D01*
X1694383Y5307126D01*
X1696110Y5312816D01*
X1696770Y5319268D01*
X1696770Y5475732D01*
X1696110Y5482183D01*
X1694383Y5487873D01*
X1691589Y5493156D01*
X1687779Y5497779D01*
X1683156Y5501589D01*
X1677873Y5504383D01*
X1672183Y5506110D01*
X1665732Y5506770D01*
X1509268Y5506770D01*
X1502816Y5506110D01*
X1497126Y5504383D01*
X1491843Y5501589D01*
X1487220Y5497779D01*
X1483410Y5493156D01*
X1480616Y5487873D01*
X1478889Y5482183D01*
X1478229Y5475732D01*
X1478229Y5319268D01*
X1478889Y5312816D01*
X1480616Y5307126D01*
X1483410Y5301843D01*
X1487220Y5297220D01*
X1491843Y5293410D01*
X1497126Y5290616D01*
X1502816Y5288889D01*
G37*
G36*
X575005Y5288330D02*
G01*
X588924Y5289651D01*
X602589Y5292801D01*
X615696Y5297627D01*
X628142Y5304078D01*
X639622Y5312105D01*
X649986Y5321503D01*
X659028Y5332171D01*
X666648Y5343906D01*
X672744Y5356504D01*
X677164Y5369814D01*
X679805Y5383530D01*
X680720Y5397500D01*
X679805Y5411470D01*
X677164Y5425186D01*
X672744Y5438495D01*
X666648Y5451094D01*
X659028Y5462828D01*
X649986Y5473496D01*
X639622Y5482894D01*
X628142Y5490921D01*
X615696Y5497372D01*
X602589Y5502198D01*
X588924Y5505348D01*
X575005Y5506669D01*
X561035Y5506212D01*
X547217Y5503976D01*
X533755Y5500014D01*
X520954Y5494324D01*
X509016Y5487060D01*
X498043Y5478373D01*
X488340Y5468315D01*
X479958Y5457088D01*
X473100Y5444896D01*
X467817Y5431942D01*
X464312Y5418378D01*
X462483Y5404510D01*
X462483Y5390489D01*
X464312Y5376621D01*
X467817Y5363057D01*
X473100Y5350103D01*
X479958Y5337911D01*
X488340Y5326684D01*
X498043Y5316626D01*
X509016Y5307939D01*
X520954Y5300675D01*
X533755Y5294985D01*
X547217Y5291023D01*
X561035Y5288788D01*
G37*
G36*
X2099005Y5288330D02*
G01*
X2112924Y5289651D01*
X2126589Y5292801D01*
X2139696Y5297627D01*
X2152142Y5304078D01*
X2163622Y5312105D01*
X2173986Y5321503D01*
X2183028Y5332171D01*
X2190648Y5343906D01*
X2196744Y5356504D01*
X2201164Y5369814D01*
X2203805Y5383530D01*
X2204720Y5397500D01*
X2203805Y5411470D01*
X2201164Y5425186D01*
X2196744Y5438495D01*
X2190648Y5451094D01*
X2183028Y5462828D01*
X2173986Y5473496D01*
X2163622Y5482894D01*
X2152142Y5490921D01*
X2139696Y5497372D01*
X2126589Y5502198D01*
X2112924Y5505348D01*
X2099005Y5506669D01*
X2085035Y5506212D01*
X2071217Y5503976D01*
X2057755Y5500014D01*
X2044954Y5494324D01*
X2033016Y5487060D01*
X2022043Y5478373D01*
X2012340Y5468315D01*
X2003958Y5457088D01*
X1997100Y5444896D01*
X1991817Y5431942D01*
X1988312Y5418378D01*
X1986483Y5404510D01*
X1986483Y5390489D01*
X1988312Y5376621D01*
X1991817Y5363057D01*
X1997100Y5350103D01*
X2003958Y5337911D01*
X2012340Y5326684D01*
X2022043Y5316626D01*
X2033016Y5307939D01*
X2044954Y5300675D01*
X2057755Y5294985D01*
X2071217Y5291023D01*
X2085035Y5288788D01*
G37*
G36*
X829005Y5288330D02*
G01*
X842924Y5289651D01*
X856589Y5292801D01*
X869696Y5297627D01*
X882142Y5304078D01*
X893622Y5312105D01*
X903986Y5321503D01*
X913028Y5332171D01*
X920648Y5343906D01*
X926744Y5356504D01*
X931164Y5369814D01*
X933805Y5383530D01*
X934719Y5397500D01*
X933805Y5411470D01*
X931164Y5425186D01*
X926744Y5438495D01*
X920648Y5451094D01*
X913028Y5462828D01*
X903986Y5473496D01*
X893622Y5482894D01*
X882142Y5490921D01*
X869696Y5497372D01*
X856589Y5502198D01*
X842924Y5505348D01*
X829005Y5506669D01*
X815035Y5506212D01*
X801217Y5503976D01*
X787755Y5500014D01*
X774954Y5494324D01*
X763016Y5487060D01*
X752043Y5478373D01*
X742340Y5468315D01*
X733958Y5457088D01*
X727100Y5444896D01*
X721817Y5431942D01*
X718312Y5418378D01*
X716483Y5404510D01*
X716483Y5390489D01*
X718312Y5376621D01*
X721817Y5363057D01*
X727100Y5350103D01*
X733958Y5337911D01*
X742340Y5326684D01*
X752043Y5316626D01*
X763016Y5307939D01*
X774954Y5300675D01*
X787755Y5294985D01*
X801217Y5291023D01*
X815035Y5288788D01*
G37*
G36*
X2353005Y5288330D02*
G01*
X2366924Y5289651D01*
X2380589Y5292801D01*
X2393696Y5297627D01*
X2406142Y5304078D01*
X2417622Y5312105D01*
X2427986Y5321503D01*
X2437028Y5332171D01*
X2444648Y5343906D01*
X2450744Y5356504D01*
X2455164Y5369814D01*
X2457805Y5383530D01*
X2458720Y5397500D01*
X2457805Y5411470D01*
X2455164Y5425186D01*
X2450744Y5438495D01*
X2444648Y5451094D01*
X2437028Y5462828D01*
X2427986Y5473496D01*
X2417622Y5482894D01*
X2406142Y5490921D01*
X2393696Y5497372D01*
X2380589Y5502198D01*
X2366924Y5505348D01*
X2353005Y5506669D01*
X2339035Y5506212D01*
X2325217Y5503976D01*
X2311755Y5500014D01*
X2298954Y5494324D01*
X2287016Y5487060D01*
X2276043Y5478373D01*
X2266340Y5468315D01*
X2257958Y5457088D01*
X2251100Y5444896D01*
X2245817Y5431942D01*
X2242312Y5418378D01*
X2240483Y5404510D01*
X2240483Y5390489D01*
X2242312Y5376621D01*
X2245817Y5363057D01*
X2251100Y5350103D01*
X2257958Y5337911D01*
X2266340Y5326684D01*
X2276043Y5316626D01*
X2287016Y5307939D01*
X2298954Y5300675D01*
X2311755Y5294985D01*
X2325217Y5291023D01*
X2339035Y5288788D01*
G37*
G36*
X363220Y5298389D02*
G01*
X374142Y5304078D01*
X385622Y5312105D01*
X395986Y5321503D01*
X405028Y5332171D01*
X412648Y5343906D01*
X416458Y5351780D01*
X363220Y5351780D01*
G37*
G36*
X1887220Y5298389D02*
G01*
X1898142Y5304078D01*
X1909622Y5312105D01*
X1919986Y5321503D01*
X1929028Y5332171D01*
X1936648Y5343906D01*
X1940458Y5351780D01*
X1887220Y5351780D01*
G37*
G36*
X271780Y5298541D02*
G01*
X271780Y5351780D01*
X218389Y5351780D01*
X219100Y5350103D01*
X225958Y5337911D01*
X234340Y5326684D01*
X244043Y5316626D01*
X255016Y5307939D01*
X266954Y5300675D01*
G37*
G36*
X1795780Y5298541D02*
G01*
X1795780Y5351780D01*
X1742389Y5351780D01*
X1743100Y5350103D01*
X1749958Y5337911D01*
X1758340Y5326684D01*
X1768043Y5316626D01*
X1779016Y5307939D01*
X1790954Y5300675D01*
G37*
G36*
X218389Y5443220D02*
G01*
X271780Y5443220D01*
X271780Y5496458D01*
X266954Y5494324D01*
X255016Y5487060D01*
X244043Y5478373D01*
X234340Y5468315D01*
X225958Y5457088D01*
X219100Y5444896D01*
G37*
G36*
X1742389Y5443220D02*
G01*
X1795780Y5443220D01*
X1795780Y5496458D01*
X1790954Y5494324D01*
X1779016Y5487060D01*
X1768043Y5478373D01*
X1758340Y5468315D01*
X1749958Y5457088D01*
X1743100Y5444896D01*
G37*
G36*
X363220Y5443220D02*
G01*
X416458Y5443220D01*
X412648Y5451094D01*
X405028Y5462828D01*
X395986Y5473496D01*
X385622Y5482894D01*
X374142Y5490921D01*
X363220Y5496610D01*
G37*
G36*
X1887220Y5443220D02*
G01*
X1940458Y5443220D01*
X1936648Y5451094D01*
X1929028Y5462828D01*
X1919986Y5473496D01*
X1909622Y5482894D01*
X1898142Y5490921D01*
X1887220Y5496610D01*
G37*

%LPD*%
D10*
X254000Y1079500D02*
G01*
X254000Y127000D01*
X508000Y-127000D01*
X2476500Y-127000D01*
X2667000Y63500D01*
X2667000Y2667000D01*
X1587500Y5080000D02*
G01*
X1206500Y5080000D01*
X1016000Y4889500D01*
X1016000Y3048000D01*
X825500Y2857500D01*
X2349500Y4381500D02*
G01*
X2476500Y4381500D01*
X2667000Y4191000D01*
X2667000Y2623497D01*
D11*
G01*
X63500Y5397500D03*
D12*
G01*
X317500Y5397500D03*
G01*
X571500Y5397500D03*
G01*
X825500Y5397500D03*
D11*
G01*
X1587500Y5397500D03*
D12*
G01*
X1841500Y5397500D03*
G01*
X2095500Y5397500D03*
G01*
X2349500Y5397500D03*
D13*
G01*
X63500Y4127500D03*
G01*
X63500Y3873500D03*
G01*
X63500Y3619500D03*
G01*
X63500Y3365500D03*
G01*
X63500Y3111500D03*
G01*
X63500Y2857500D03*
G01*
X63500Y2603500D03*
G01*
X63500Y2349500D03*
G01*
X63500Y2095500D03*
G01*
X63500Y1841500D03*
G01*
X63500Y1587500D03*
G01*
X63500Y1333500D03*
G01*
X63500Y1079500D03*
G01*
X63500Y825500D03*
G01*
X63500Y571500D03*
G01*
X2349500Y571500D03*
G01*
X2349500Y825500D03*
G01*
X2349500Y1079500D03*
G01*
X2349500Y1333500D03*
G01*
X2349500Y1587500D03*
G01*
X2349500Y1841500D03*
G01*
X2349500Y2095500D03*
G01*
X2349500Y2349500D03*
G01*
X2349500Y2603500D03*
G01*
X2349500Y2857500D03*
G01*
X2349500Y3111500D03*
G01*
X2349500Y3365500D03*
G01*
X2349500Y3619500D03*
G01*
X2349500Y3873500D03*
G01*
X2349500Y4127500D03*
D14*
G01*
X1968500Y3937000D03*
G01*
X1968500Y4699000D03*
G01*
X1714500Y190500D03*
G01*
X952500Y190500D03*
G01*
X508000Y2476500D03*
G01*
X508000Y3238500D03*
G01*
X2032000Y3619500D03*
G01*
X1270000Y3619500D03*
D15*
G01*
X1270000Y4000500D03*
D16*
G01*
X1524000Y4000500D03*
G01*
X1524000Y4762500D03*
G01*
X1270000Y4762500D03*
D15*
G01*
X1841500Y2921000D03*
D16*
G01*
X1587500Y2921000D03*
G01*
X1587500Y2159000D03*
G01*
X1841500Y2159000D03*
D15*
G01*
X508000Y698500D03*
D16*
G01*
X762000Y698500D03*
G01*
X762000Y1460500D03*
G01*
X508000Y1460500D03*
D15*
G01*
X508000Y4000500D03*
D16*
G01*
X762000Y4000500D03*
G01*
X762000Y4762500D03*
G01*
X508000Y4762500D03*
D17*
G01*
X2349500Y4381500D03*
G01*
X254000Y1079500D03*
G01*
X1587500Y5080000D03*
G01*
X825500Y2857500D03*
G01*
X1016000Y2095500D03*
G01*
X1143000Y2794000D03*
M02*
