G04 Layer: TopSilkscreenLayer*
G04 EasyEDA v6.5.38, 2023-12-01 14:45:36*
G04 d3a44f610aa94845aa177982d7dd4480,0f913dacbf7e480eb1521c3b63592b38,10*
G04 Gerber Generator version 0.2*
G04 Scale: 100 percent, Rotated: No, Reflected: No *
G04 Dimensions in millimeters *
G04 leading zeros omitted , absolute positions ,4 integer and 5 decimal *
%FSLAX45Y45*%
%MOMM*%

%ADD10C,0.1524*%
%ADD11C,0.2032*%
%ADD12C,0.2030*%
%ADD13C,0.2540*%
%ADD14C,0.2997*%
%ADD15C,0.0112*%

%LPD*%
G36*
X1206804Y3560826D02*
G01*
X1199337Y3543350D01*
X1196441Y3535324D01*
X1196035Y3533343D01*
X1197660Y3531768D01*
X1202131Y3529380D01*
X1208786Y3526485D01*
X1228039Y3519119D01*
X1248562Y3510432D01*
X1276654Y3497579D01*
X1298854Y3486505D01*
X1320596Y3474618D01*
X1331264Y3468420D01*
X1347012Y3458768D01*
X1362456Y3448659D01*
X1372616Y3441750D01*
X1387551Y3430981D01*
X1406906Y3416096D01*
X1416405Y3408375D01*
X1430324Y3396538D01*
X1443888Y3384296D01*
X1457096Y3371697D01*
X1474114Y3354425D01*
X1490472Y3336493D01*
X1502308Y3322726D01*
X1517446Y3303828D01*
X1531874Y3284423D01*
X1545539Y3264458D01*
X1558442Y3244037D01*
X1564640Y3233623D01*
X1573530Y3217824D01*
X1584655Y3196336D01*
X1592478Y3179927D01*
X1602130Y3157728D01*
X1610207Y3138373D01*
X1614322Y3131159D01*
X1618335Y3128721D01*
X1623720Y3129330D01*
X1630680Y3131058D01*
X1635963Y3132836D01*
X1639824Y3135020D01*
X1642465Y3138119D01*
X1644091Y3142386D01*
X1645005Y3148330D01*
X1645412Y3156204D01*
X1645412Y3173069D01*
X1644954Y3186125D01*
X1644040Y3199130D01*
X1642668Y3212134D01*
X1640890Y3225139D01*
X1638655Y3238042D01*
X1635963Y3250895D01*
X1632864Y3263646D01*
X1629308Y3276346D01*
X1625346Y3288944D01*
X1620977Y3301390D01*
X1616202Y3313684D01*
X1610969Y3325876D01*
X1605381Y3337864D01*
X1599387Y3349701D01*
X1592986Y3361334D01*
X1586179Y3372764D01*
X1579016Y3383991D01*
X1572361Y3393592D01*
X1565706Y3402279D01*
X1558036Y3411423D01*
X1549552Y3420973D01*
X1540459Y3430676D01*
X1530807Y3440429D01*
X1520901Y3450031D01*
X1510792Y3459327D01*
X1500733Y3468115D01*
X1490929Y3476294D01*
X1481429Y3483660D01*
X1472539Y3490061D01*
X1463090Y3496157D01*
X1452575Y3502456D01*
X1441907Y3508501D01*
X1431036Y3514191D01*
X1420063Y3519576D01*
X1408938Y3524656D01*
X1397660Y3529380D01*
X1386281Y3533851D01*
X1374749Y3537915D01*
X1363167Y3541674D01*
X1351432Y3545128D01*
X1339646Y3548227D01*
X1327759Y3551021D01*
X1315821Y3553460D01*
X1303782Y3555542D01*
X1291691Y3557270D01*
X1279601Y3558692D01*
X1267409Y3559759D01*
X1255217Y3560470D01*
X1242974Y3560826D01*
G37*
G36*
X1054049Y3516071D02*
G01*
X1049883Y3514953D01*
X1042974Y3511854D01*
X1034287Y3507384D01*
X1019810Y3498748D01*
X1008938Y3491585D01*
X998118Y3484067D01*
X988568Y3477056D01*
X979271Y3469589D01*
X975156Y3465982D01*
X972159Y3462782D01*
X970127Y3459734D01*
X968806Y3456482D01*
X968095Y3452723D01*
X967790Y3448050D01*
X967892Y3433927D01*
X969111Y3415741D01*
X972261Y3392170D01*
X1005179Y3392119D01*
X1016304Y3391712D01*
X1027582Y3391001D01*
X1039012Y3389884D01*
X1050594Y3388410D01*
X1062278Y3386582D01*
X1074013Y3384397D01*
X1085900Y3381908D01*
X1097838Y3379063D01*
X1109827Y3375863D01*
X1121816Y3372358D01*
X1133856Y3368497D01*
X1145844Y3364382D01*
X1157833Y3359912D01*
X1169822Y3355136D01*
X1193546Y3344722D01*
X1205331Y3339084D01*
X1216964Y3333140D01*
X1228496Y3326942D01*
X1239875Y3320440D01*
X1251102Y3313684D01*
X1260703Y3307587D01*
X1269441Y3301441D01*
X1278737Y3294379D01*
X1288542Y3286455D01*
X1298702Y3277870D01*
X1309065Y3268726D01*
X1329740Y3249371D01*
X1339799Y3239465D01*
X1358544Y3219754D01*
X1366926Y3210306D01*
X1374546Y3201263D01*
X1381150Y3192780D01*
X1387703Y3183534D01*
X1394815Y3172866D01*
X1401673Y3161944D01*
X1408226Y3150920D01*
X1414475Y3139694D01*
X1420418Y3128365D01*
X1426057Y3116884D01*
X1431391Y3105302D01*
X1436420Y3093618D01*
X1441094Y3081832D01*
X1445463Y3069996D01*
X1449476Y3058109D01*
X1453134Y3046171D01*
X1456486Y3034182D01*
X1459433Y3022244D01*
X1462074Y3010255D01*
X1464310Y2998317D01*
X1466189Y2986430D01*
X1467713Y2974594D01*
X1468882Y2962757D01*
X1470710Y2932176D01*
X1471726Y2921508D01*
X1472488Y2917596D01*
X1473504Y2914497D01*
X1474825Y2912160D01*
X1476603Y2910433D01*
X1478889Y2909214D01*
X1481734Y2908452D01*
X1485239Y2907995D01*
X1541424Y2906522D01*
X1561033Y2929839D01*
X1568805Y2939846D01*
X1576730Y2950667D01*
X1583842Y2961030D01*
X1599996Y2986481D01*
X1594561Y3018688D01*
X1592326Y3030626D01*
X1587042Y3054350D01*
X1580794Y3077819D01*
X1577289Y3089503D01*
X1569567Y3112617D01*
X1565351Y3124047D01*
X1556207Y3146653D01*
X1546148Y3168954D01*
X1537970Y3185414D01*
X1532280Y3196234D01*
X1520190Y3217570D01*
X1510538Y3233216D01*
X1496923Y3253689D01*
X1482496Y3273602D01*
X1474978Y3283305D01*
X1459280Y3302355D01*
X1442669Y3320846D01*
X1425194Y3338677D01*
X1411579Y3351580D01*
X1397508Y3364128D01*
X1378102Y3380232D01*
X1357985Y3395573D01*
X1347673Y3402990D01*
X1326642Y3417163D01*
X1315923Y3423970D01*
X1299514Y3433775D01*
X1277264Y3446068D01*
X1260246Y3454755D01*
X1248765Y3460292D01*
X1231341Y3468115D01*
X1207820Y3477768D01*
X1189939Y3484372D01*
X1165860Y3492296D01*
X1153718Y3495903D01*
X1141526Y3499256D01*
X1117041Y3505200D01*
X1098550Y3508959D01*
X1069594Y3513988D01*
X1059434Y3515512D01*
G37*
G36*
X899160Y3495446D02*
G01*
X896619Y3493617D01*
X891489Y3488588D01*
X884478Y3481222D01*
X872032Y3467201D01*
X863549Y3457092D01*
X855421Y3446779D01*
X847598Y3436365D01*
X840130Y3425799D01*
X829462Y3409696D01*
X822807Y3398774D01*
X816457Y3387699D01*
X810463Y3376523D01*
X804773Y3365195D01*
X799388Y3353714D01*
X794359Y3342132D01*
X789686Y3330397D01*
X785317Y3318510D01*
X781253Y3306521D01*
X777544Y3294379D01*
X774192Y3282137D01*
X771144Y3269792D01*
X768451Y3257296D01*
X766114Y3244646D01*
X764438Y3233928D01*
X763117Y3222650D01*
X762050Y3210915D01*
X761339Y3198825D01*
X760730Y3180181D01*
X760831Y3161182D01*
X761238Y3148431D01*
X762406Y3129432D01*
X763524Y3116935D01*
X764895Y3104692D01*
X766572Y3092754D01*
X768502Y3081223D01*
X770686Y3070148D01*
X773125Y3059633D01*
X776122Y3048558D01*
X779780Y3036519D01*
X783691Y3024581D01*
X787857Y3012846D01*
X792378Y3001264D01*
X797102Y2989884D01*
X802132Y2978607D01*
X807466Y2967532D01*
X813053Y2956661D01*
X818896Y2945942D01*
X825042Y2935376D01*
X831443Y2925013D01*
X838098Y2914853D01*
X845007Y2904896D01*
X852169Y2895092D01*
X859637Y2885490D01*
X867308Y2876092D01*
X875284Y2866898D01*
X883462Y2857906D01*
X891946Y2849118D01*
X900633Y2840532D01*
X909624Y2832150D01*
X918819Y2824022D01*
X928268Y2816047D01*
X937971Y2808325D01*
X947877Y2800807D01*
X957986Y2793593D01*
X968248Y2786634D01*
X978611Y2779979D01*
X989076Y2773629D01*
X999693Y2767533D01*
X1010412Y2761691D01*
X1021232Y2756204D01*
X1043127Y2745994D01*
X1054252Y2741320D01*
X1071067Y2734868D01*
X1082395Y2730906D01*
X1093774Y2727248D01*
X1110945Y2722270D01*
X1122476Y2719324D01*
X1134059Y2716631D01*
X1145692Y2714244D01*
X1157376Y2712161D01*
X1169111Y2710332D01*
X1192580Y2707538D01*
X1216202Y2705862D01*
X1228039Y2705455D01*
X1251661Y2705506D01*
X1263497Y2705963D01*
X1275283Y2706674D01*
X1292961Y2708300D01*
X1316482Y2711450D01*
X1328166Y2713482D01*
X1351432Y2718308D01*
X1374495Y2724302D01*
X1385925Y2727706D01*
X1397304Y2731414D01*
X1408582Y2735427D01*
X1419809Y2739694D01*
X1430934Y2744216D01*
X1442008Y2749042D01*
X1452981Y2754172D01*
X1463852Y2759557D01*
X1479905Y2768142D01*
X1490522Y2774238D01*
X1506169Y2783941D01*
X1516481Y2790748D01*
X1526641Y2797810D01*
X1536649Y2805176D01*
X1548282Y2814116D01*
X1558848Y2822549D01*
X1567129Y2829509D01*
X1572056Y2834081D01*
X1575816Y2838551D01*
X1576527Y2842056D01*
X1573733Y2846425D01*
X1566926Y2853436D01*
X1561998Y2858109D01*
X1557578Y2861919D01*
X1554124Y2864510D01*
X1552041Y2865424D01*
X1549450Y2864104D01*
X1544421Y2860497D01*
X1537716Y2855163D01*
X1525574Y2844850D01*
X1516430Y2837383D01*
X1506880Y2830118D01*
X1496974Y2823057D01*
X1486712Y2816199D01*
X1476146Y2809595D01*
X1465326Y2803245D01*
X1454200Y2797149D01*
X1437081Y2788513D01*
X1425397Y2783128D01*
X1413560Y2777998D01*
X1401521Y2773222D01*
X1389380Y2768752D01*
X1377137Y2764586D01*
X1364792Y2760776D01*
X1352397Y2757322D01*
X1339951Y2754223D01*
X1327505Y2751531D01*
X1317040Y2749600D01*
X1305814Y2747975D01*
X1293926Y2746603D01*
X1281633Y2745486D01*
X1268984Y2744673D01*
X1256080Y2744114D01*
X1243126Y2743809D01*
X1230223Y2743809D01*
X1217472Y2744063D01*
X1205026Y2744622D01*
X1192987Y2745435D01*
X1181557Y2746502D01*
X1170838Y2747873D01*
X1160932Y2749550D01*
X1147876Y2752242D01*
X1134821Y2755341D01*
X1121816Y2758795D01*
X1108913Y2762605D01*
X1096060Y2766771D01*
X1083360Y2771241D01*
X1070813Y2776067D01*
X1058468Y2781198D01*
X1046327Y2786583D01*
X1034440Y2792272D01*
X1022807Y2798216D01*
X1011478Y2804464D01*
X1000506Y2810865D01*
X989888Y2817571D01*
X979678Y2824429D01*
X969873Y2831490D01*
X960526Y2838754D01*
X933856Y2861767D01*
X949655Y2854604D01*
X954938Y2852470D01*
X960221Y2850743D01*
X965504Y2849473D01*
X970737Y2848660D01*
X975918Y2848254D01*
X981049Y2848203D01*
X986078Y2848610D01*
X991006Y2849321D01*
X995883Y2850438D01*
X1000607Y2851861D01*
X1005179Y2853588D01*
X1009599Y2855620D01*
X1013917Y2857957D01*
X1021943Y2863443D01*
X1025652Y2866542D01*
X1029157Y2869895D01*
X1032408Y2873451D01*
X1035456Y2877210D01*
X1038250Y2881122D01*
X1040790Y2885186D01*
X1044956Y2893822D01*
X1046581Y2898292D01*
X1047851Y2902864D01*
X1048816Y2907538D01*
X1049477Y2912313D01*
X1049731Y2917088D01*
X1049578Y2921914D01*
X1049070Y2926791D01*
X1048156Y2931668D01*
X1046835Y2936494D01*
X1045057Y2941370D01*
X1042873Y2946146D01*
X1040180Y2950870D01*
X1037082Y2955544D01*
X1033271Y2960370D01*
X1029157Y2964738D01*
X1024839Y2968701D01*
X1020267Y2972257D01*
X1015441Y2975356D01*
X1010513Y2978099D01*
X1005382Y2980385D01*
X1000150Y2982264D01*
X994765Y2983687D01*
X989380Y2984754D01*
X983894Y2985363D01*
X978408Y2985566D01*
X972870Y2985312D01*
X967384Y2984703D01*
X961948Y2983636D01*
X956614Y2982163D01*
X951382Y2980283D01*
X946251Y2977946D01*
X941273Y2975254D01*
X936498Y2972104D01*
X931926Y2968498D01*
X927557Y2964535D01*
X923442Y2960166D01*
X919632Y2955340D01*
X916584Y2950972D01*
X914196Y2947060D01*
X912317Y2943301D01*
X910945Y2939542D01*
X909980Y2935478D01*
X909370Y2930906D01*
X908964Y2919425D01*
X909319Y2909570D01*
X910539Y2900578D01*
X912469Y2892755D01*
X915212Y2886303D01*
X921512Y2874416D01*
X909675Y2885287D01*
X903376Y2891891D01*
X896721Y2899714D01*
X889812Y2908503D01*
X882700Y2918206D01*
X875537Y2928620D01*
X868375Y2939643D01*
X861314Y2951073D01*
X854405Y2962859D01*
X847801Y2974746D01*
X841552Y2986684D01*
X835710Y2998470D01*
X830478Y3010001D01*
X825855Y3021076D01*
X821690Y3032201D01*
X817829Y3044088D01*
X814273Y3056432D01*
X811072Y3069183D01*
X808228Y3082290D01*
X805789Y3095650D01*
X803656Y3109214D01*
X801979Y3122930D01*
X800608Y3136696D01*
X799693Y3150514D01*
X799134Y3164230D01*
X798982Y3177794D01*
X799236Y3191205D01*
X799896Y3204311D01*
X801014Y3217113D01*
X802538Y3229508D01*
X804519Y3241446D01*
X806907Y3253435D01*
X809701Y3265424D01*
X812901Y3277412D01*
X816559Y3289401D01*
X820572Y3301390D01*
X824941Y3313277D01*
X829665Y3325114D01*
X834745Y3336848D01*
X840181Y3348431D01*
X848868Y3365550D01*
X855116Y3376726D01*
X861618Y3387648D01*
X868375Y3398367D01*
X875436Y3408832D01*
X882700Y3418992D01*
X890269Y3428796D01*
X898042Y3438347D01*
X906068Y3447491D01*
X914247Y3456228D01*
X928014Y3470401D01*
X909370Y3487775D01*
X904646Y3491788D01*
X901090Y3494430D01*
G37*
G36*
X990904Y3347059D02*
G01*
X977290Y3346551D01*
X963980Y3345535D01*
X952500Y3344062D01*
X944371Y3342335D01*
X937971Y3340252D01*
X925677Y3335426D01*
X913993Y3329787D01*
X903071Y3323336D01*
X897839Y3319830D01*
X887933Y3312261D01*
X878789Y3303981D01*
X870458Y3294989D01*
X862888Y3285337D01*
X859434Y3280308D01*
X856183Y3275076D01*
X850341Y3264255D01*
X847750Y3258616D01*
X843280Y3246932D01*
X841349Y3240938D01*
X839673Y3234791D01*
X838250Y3228492D01*
X837082Y3222142D01*
X835507Y3209391D01*
X834847Y3197250D01*
X834847Y3191306D01*
X835558Y3179673D01*
X837184Y3168446D01*
X838301Y3162960D01*
X841248Y3152241D01*
X845108Y3141878D01*
X849884Y3131870D01*
X855573Y3122218D01*
X862177Y3112871D01*
X869696Y3103880D01*
X878128Y3095193D01*
X887526Y3086760D01*
X897229Y3079140D01*
X907034Y3072536D01*
X917092Y3066897D01*
X922274Y3064408D01*
X932992Y3060090D01*
X944321Y3056534D01*
X956462Y3053689D01*
X969518Y3051505D01*
X1008735Y3045917D01*
X1013917Y3045002D01*
X1019149Y3043682D01*
X1024483Y3042005D01*
X1029817Y3039973D01*
X1040485Y3034944D01*
X1051001Y3028696D01*
X1061212Y3021431D01*
X1066139Y3017469D01*
X1075588Y3008884D01*
X1084275Y2999587D01*
X1088237Y2994761D01*
X1091996Y2989732D01*
X1095451Y2984652D01*
X1098651Y2979470D01*
X1101496Y2974187D01*
X1103833Y2969260D01*
X1107795Y2958947D01*
X1110742Y2948178D01*
X1111910Y2942640D01*
X1113485Y2931312D01*
X1114094Y2919882D01*
X1113790Y2908350D01*
X1112520Y2896870D01*
X1110386Y2885592D01*
X1108964Y2880055D01*
X1105458Y2869336D01*
X1101039Y2859074D01*
X1098499Y2854147D01*
X1092758Y2844850D01*
X1082040Y2829407D01*
X1098194Y2813558D01*
X1102918Y2809341D01*
X1107592Y2805582D01*
X1112316Y2802128D01*
X1117092Y2799080D01*
X1122019Y2796286D01*
X1127150Y2793847D01*
X1132535Y2791612D01*
X1138174Y2789631D01*
X1150620Y2786227D01*
X1168450Y2782620D01*
X1185214Y2779826D01*
X1191514Y2779268D01*
X1196644Y2779420D01*
X1200912Y2780233D01*
X1204468Y2781858D01*
X1207566Y2784348D01*
X1210360Y2787802D01*
X1213154Y2792222D01*
X1219352Y2804312D01*
X1224534Y2815539D01*
X1229156Y2826816D01*
X1233170Y2838246D01*
X1236675Y2849727D01*
X1239621Y2861310D01*
X1242009Y2872892D01*
X1243838Y2884576D01*
X1245108Y2896260D01*
X1245819Y2907944D01*
X1246022Y2919628D01*
X1245616Y2931261D01*
X1244701Y2942894D01*
X1243228Y2954477D01*
X1241196Y2965958D01*
X1238656Y2977438D01*
X1235506Y2988767D01*
X1231900Y2999994D01*
X1227683Y3011119D01*
X1222959Y3022092D01*
X1217726Y3032912D01*
X1211935Y3043529D01*
X1205585Y3054045D01*
X1198727Y3064306D01*
X1191361Y3074365D01*
X1184148Y3083204D01*
X1176426Y3091738D01*
X1168146Y3099968D01*
X1159357Y3107893D01*
X1150162Y3115513D01*
X1140510Y3122726D01*
X1130503Y3129584D01*
X1120140Y3136036D01*
X1109472Y3142030D01*
X1098550Y3147618D01*
X1087374Y3152749D01*
X1075994Y3157423D01*
X1064514Y3161538D01*
X1052830Y3165195D01*
X1041146Y3168294D01*
X1029360Y3170834D01*
X1017574Y3172764D01*
X997153Y3175203D01*
X989431Y3176727D01*
X982726Y3178708D01*
X977036Y3181096D01*
X972312Y3183890D01*
X968705Y3187090D01*
X966114Y3190646D01*
X964641Y3194507D01*
X964285Y3198672D01*
X965047Y3203143D01*
X966978Y3207867D01*
X970076Y3212846D01*
X972058Y3215436D01*
X974039Y3217367D01*
X976477Y3218738D01*
X979678Y3219551D01*
X984046Y3219958D01*
X998016Y3219551D01*
X1014323Y3218535D01*
X1026058Y3217316D01*
X1037742Y3215640D01*
X1049274Y3213506D01*
X1060754Y3210915D01*
X1072083Y3207867D01*
X1083259Y3204362D01*
X1094333Y3200450D01*
X1105255Y3196082D01*
X1116025Y3191256D01*
X1126642Y3185972D01*
X1137107Y3180283D01*
X1147368Y3174187D01*
X1157478Y3167634D01*
X1167384Y3160674D01*
X1177086Y3153257D01*
X1186586Y3145485D01*
X1195882Y3137255D01*
X1205077Y3128518D01*
X1213967Y3119374D01*
X1222349Y3110128D01*
X1230223Y3100679D01*
X1237589Y3090976D01*
X1244498Y3080969D01*
X1250950Y3070707D01*
X1257046Y3060039D01*
X1262735Y3049016D01*
X1268069Y3037535D01*
X1273048Y3025546D01*
X1277772Y3013049D01*
X1281988Y3000552D01*
X1285189Y2989630D01*
X1287526Y2979064D01*
X1289151Y2967634D01*
X1290320Y2954070D01*
X1291132Y2937154D01*
X1291742Y2918053D01*
X1291996Y2902407D01*
X1291742Y2888996D01*
X1290878Y2876956D01*
X1289304Y2865323D01*
X1286814Y2853283D01*
X1283411Y2839872D01*
X1276146Y2815183D01*
X1275689Y2812999D01*
X1275943Y2811068D01*
X1277061Y2809240D01*
X1279296Y2807411D01*
X1282852Y2805430D01*
X1287983Y2803144D01*
X1303680Y2797200D01*
X1333347Y2786430D01*
X1363522Y2795625D01*
X1382217Y2802178D01*
X1400200Y2808986D01*
X1411884Y2813964D01*
X1413611Y2815082D01*
X1418945Y2844800D01*
X1420520Y2854858D01*
X1421841Y2866085D01*
X1422857Y2878124D01*
X1423974Y2904032D01*
X1423924Y2930906D01*
X1423466Y2944164D01*
X1422704Y2957017D01*
X1421688Y2969260D01*
X1420317Y2980690D01*
X1418691Y2991104D01*
X1416304Y3003346D01*
X1413560Y3015538D01*
X1410411Y3027578D01*
X1406906Y3039516D01*
X1403045Y3051352D01*
X1398879Y3063087D01*
X1394307Y3074619D01*
X1389430Y3086049D01*
X1384198Y3097326D01*
X1378661Y3108452D01*
X1372768Y3119424D01*
X1366621Y3130194D01*
X1360119Y3140811D01*
X1353312Y3151276D01*
X1346200Y3161487D01*
X1338783Y3171545D01*
X1331112Y3181350D01*
X1323136Y3190951D01*
X1314907Y3200349D01*
X1306372Y3209544D01*
X1297584Y3218484D01*
X1288491Y3227171D01*
X1279194Y3235604D01*
X1269644Y3243783D01*
X1259840Y3251758D01*
X1249781Y3259378D01*
X1239469Y3266744D01*
X1228953Y3273856D01*
X1218234Y3280664D01*
X1207262Y3287166D01*
X1196086Y3293364D01*
X1184706Y3299256D01*
X1172870Y3304946D01*
X1160881Y3310280D01*
X1148791Y3315309D01*
X1136599Y3319983D01*
X1124356Y3324301D01*
X1112062Y3328263D01*
X1099718Y3331870D01*
X1087323Y3335121D01*
X1074978Y3337966D01*
X1062685Y3340455D01*
X1050442Y3342538D01*
X1038301Y3344265D01*
X1026261Y3345535D01*
X1014323Y3346450D01*
X1002537Y3346958D01*
G37*
G36*
X1283208Y959612D02*
G01*
X1283208Y950721D01*
X1318056Y950721D01*
X1324813Y950417D01*
X1330502Y949401D01*
X1335379Y947470D01*
X1339646Y944473D01*
X1343558Y940155D01*
X1347266Y934313D01*
X1351026Y926795D01*
X1355090Y917397D01*
X1368704Y884072D01*
X1381048Y910691D01*
X1385671Y921562D01*
X1389227Y931468D01*
X1391412Y939342D01*
X1391716Y944016D01*
X1393393Y946607D01*
X1399032Y948740D01*
X1407769Y950163D01*
X1418793Y950721D01*
X1447444Y950721D01*
X1447444Y888288D01*
X1451254Y888288D01*
X1451457Y893876D01*
X1452118Y899261D01*
X1453235Y904392D01*
X1454708Y909370D01*
X1456588Y914044D01*
X1458874Y918514D01*
X1461465Y922731D01*
X1464462Y926693D01*
X1467713Y930351D01*
X1471320Y933805D01*
X1475232Y936955D01*
X1479397Y939850D01*
X1483817Y942390D01*
X1488490Y944676D01*
X1493367Y946658D01*
X1498498Y948334D01*
X1503781Y949706D01*
X1509268Y950721D01*
X1514957Y951382D01*
X1520748Y951737D01*
X1526692Y951737D01*
X1532737Y951382D01*
X1538833Y950671D01*
X1545082Y949604D01*
X1551381Y948131D01*
X1557731Y946302D01*
X1564081Y944067D01*
X1570482Y941425D01*
X1576730Y938530D01*
X1581404Y936040D01*
X1584502Y933703D01*
X1586128Y931418D01*
X1586382Y928878D01*
X1585315Y925982D01*
X1582978Y922528D01*
X1579524Y918260D01*
X1575765Y914146D01*
X1572514Y911250D01*
X1569415Y909523D01*
X1566265Y909066D01*
X1562709Y909878D01*
X1558594Y911910D01*
X1553514Y915263D01*
X1547317Y919886D01*
X1541881Y923594D01*
X1536496Y926439D01*
X1531213Y928471D01*
X1526032Y929640D01*
X1521053Y929995D01*
X1516278Y929640D01*
X1511757Y928522D01*
X1507540Y926642D01*
X1503629Y924052D01*
X1500124Y920800D01*
X1497025Y916889D01*
X1494434Y912368D01*
X1492300Y907186D01*
X1490726Y901446D01*
X1490430Y899515D01*
X1594104Y899515D01*
X1594358Y905662D01*
X1595678Y917397D01*
X1596745Y922883D01*
X1598066Y928065D01*
X1599590Y932891D01*
X1601419Y937260D01*
X1603502Y941120D01*
X1605788Y944422D01*
X1608378Y947064D01*
X1611122Y949045D01*
X1614170Y950264D01*
X1617421Y950721D01*
X1622044Y950671D01*
X1625955Y950366D01*
X1629206Y949756D01*
X1631848Y948639D01*
X1633880Y946861D01*
X1635455Y944321D01*
X1636623Y940866D01*
X1637436Y936396D01*
X1637944Y930656D01*
X1638401Y915111D01*
X1638604Y895451D01*
X1639112Y886714D01*
X1640027Y878738D01*
X1641195Y871524D01*
X1642719Y865124D01*
X1644548Y859536D01*
X1646682Y854811D01*
X1649069Y850900D01*
X1651711Y847902D01*
X1654657Y845769D01*
X1657756Y844550D01*
X1661160Y844245D01*
X1664716Y844905D01*
X1668525Y846480D01*
X1672488Y849071D01*
X1676603Y852627D01*
X1679854Y856335D01*
X1682445Y860653D01*
X1684477Y865733D01*
X1685950Y871778D01*
X1686915Y878840D01*
X1687322Y887120D01*
X1687271Y896721D01*
X1686052Y921359D01*
X1685798Y931671D01*
X1686204Y939241D01*
X1687372Y944473D01*
X1689506Y947826D01*
X1692808Y949706D01*
X1697329Y950518D01*
X1703324Y950721D01*
X1705813Y950264D01*
X1708150Y948994D01*
X1710283Y946962D01*
X1712264Y944168D01*
X1714042Y940765D01*
X1715617Y936802D01*
X1717039Y932281D01*
X1718259Y927303D01*
X1720138Y916228D01*
X1721205Y904087D01*
X1721408Y891387D01*
X1721256Y884986D01*
X1720189Y872388D01*
X1718259Y860450D01*
X1716938Y854913D01*
X1715363Y849782D01*
X1713585Y845007D01*
X1711553Y840740D01*
X1709267Y837031D01*
X1707083Y834694D01*
X1704136Y832612D01*
X1700428Y830783D01*
X1696110Y829310D01*
X1691233Y828040D01*
X1685950Y827074D01*
X1674266Y825957D01*
X1668068Y825804D01*
X1655368Y826262D01*
X1649069Y826871D01*
X1642922Y827735D01*
X1636928Y828852D01*
X1631289Y830224D01*
X1626006Y831850D01*
X1621180Y833678D01*
X1616913Y835761D01*
X1613255Y838098D01*
X1610360Y840638D01*
X1607362Y844245D01*
X1604721Y848410D01*
X1602333Y853033D01*
X1600301Y858012D01*
X1598523Y863396D01*
X1597050Y869086D01*
X1595882Y874928D01*
X1595018Y880973D01*
X1594154Y893368D01*
X1594104Y899515D01*
X1490430Y899515D01*
X1489760Y895146D01*
X1489456Y888288D01*
X1489760Y881481D01*
X1490726Y875182D01*
X1492300Y869492D01*
X1494383Y864311D01*
X1497025Y859790D01*
X1500073Y855878D01*
X1503578Y852627D01*
X1507490Y850036D01*
X1511655Y848106D01*
X1516176Y846937D01*
X1520952Y846531D01*
X1525879Y846886D01*
X1531010Y848004D01*
X1536242Y849985D01*
X1541576Y852779D01*
X1552549Y860501D01*
X1557324Y863549D01*
X1561490Y865530D01*
X1565198Y866495D01*
X1568551Y866444D01*
X1571752Y865428D01*
X1574952Y863447D01*
X1578305Y860552D01*
X1580896Y857503D01*
X1582420Y854456D01*
X1582928Y851458D01*
X1582470Y848461D01*
X1581099Y845515D01*
X1578914Y842721D01*
X1575866Y840028D01*
X1572056Y837488D01*
X1567484Y835152D01*
X1562303Y833018D01*
X1556461Y831138D01*
X1550009Y829513D01*
X1543100Y828141D01*
X1535633Y827125D01*
X1527810Y826516D01*
X1519529Y826211D01*
X1513332Y826363D01*
X1507337Y826820D01*
X1501597Y827633D01*
X1496161Y828802D01*
X1490980Y830275D01*
X1486103Y832103D01*
X1481531Y834237D01*
X1477213Y836726D01*
X1473200Y839469D01*
X1469491Y842518D01*
X1466138Y845870D01*
X1463090Y849528D01*
X1460398Y853490D01*
X1458010Y857656D01*
X1455978Y862126D01*
X1454302Y866902D01*
X1452981Y871880D01*
X1452016Y877112D01*
X1451457Y882599D01*
X1451254Y888288D01*
X1447444Y888288D01*
X1447444Y825906D01*
X1416608Y826058D01*
X1411020Y826617D01*
X1407007Y827887D01*
X1404366Y830224D01*
X1402892Y833780D01*
X1402334Y838860D01*
X1402638Y845819D01*
X1406499Y883869D01*
X1385112Y846632D01*
X1380845Y839876D01*
X1377035Y834593D01*
X1373581Y830834D01*
X1370330Y828598D01*
X1367231Y827836D01*
X1364081Y828598D01*
X1360881Y830834D01*
X1357426Y834593D01*
X1353616Y839876D01*
X1349349Y846632D01*
X1327962Y883869D01*
X1331772Y846124D01*
X1332026Y839317D01*
X1331620Y834237D01*
X1330350Y830580D01*
X1328115Y828192D01*
X1324813Y826769D01*
X1320241Y826058D01*
X1309878Y825957D01*
X1306169Y826262D01*
X1303121Y827074D01*
X1300683Y828497D01*
X1298752Y830834D01*
X1297279Y834186D01*
X1296212Y838860D01*
X1295450Y844956D01*
X1294993Y852779D01*
X1294688Y874217D01*
X1294638Y950721D01*
X1283208Y950721D01*
X1283208Y816965D01*
X1741525Y816965D01*
X1741525Y959612D01*
G37*
G36*
X828751Y956868D02*
G01*
X827379Y956767D01*
X826008Y956106D01*
X824636Y954836D01*
X823315Y953008D01*
X820877Y947419D01*
X819759Y943711D01*
X817829Y934313D01*
X816305Y922223D01*
X813409Y879551D01*
X777138Y921156D01*
X766876Y932180D01*
X762304Y936752D01*
X758037Y940663D01*
X754075Y943965D01*
X750417Y946607D01*
X747115Y948639D01*
X744067Y950010D01*
X741324Y950671D01*
X738835Y950721D01*
X736600Y950061D01*
X734568Y948791D01*
X732840Y946759D01*
X731266Y944118D01*
X729945Y940714D01*
X728827Y936650D01*
X727100Y926439D01*
X726084Y913333D01*
X725576Y897382D01*
X725576Y875741D01*
X726033Y855827D01*
X726440Y848207D01*
X727100Y841908D01*
X727913Y836930D01*
X729030Y833018D01*
X730402Y830122D01*
X732028Y828090D01*
X734060Y826769D01*
X736396Y826109D01*
X739089Y825906D01*
X742899Y826211D01*
X745845Y827328D01*
X748030Y829411D01*
X749554Y832662D01*
X750417Y837336D01*
X750671Y843534D01*
X750468Y851560D01*
X749198Y869442D01*
X748995Y876300D01*
X749096Y882091D01*
X749554Y886866D01*
X750366Y890524D01*
X751586Y893165D01*
X753160Y894740D01*
X755243Y895299D01*
X757732Y894740D01*
X760679Y893165D01*
X764184Y890524D01*
X768146Y886866D01*
X772668Y882091D01*
X783336Y869442D01*
X794715Y855014D01*
X804113Y843838D01*
X812342Y835202D01*
X816000Y831900D01*
X819403Y829208D01*
X822553Y827227D01*
X825449Y825855D01*
X828090Y825195D01*
X830529Y825195D01*
X832713Y825855D01*
X834644Y827227D01*
X836421Y829259D01*
X837946Y832002D01*
X839317Y835456D01*
X840435Y839571D01*
X841451Y844397D01*
X842873Y856183D01*
X843686Y870813D01*
X843940Y888288D01*
X843584Y903274D01*
X842619Y916584D01*
X841095Y928217D01*
X839165Y937920D01*
X836828Y945794D01*
X835609Y948944D01*
X834288Y951585D01*
X832916Y953719D01*
X831545Y955294D01*
X830173Y956360D01*
G37*
G36*
X1019657Y950721D02*
G01*
X1019657Y878078D01*
X1046378Y878078D01*
X1046378Y888288D01*
X1046632Y895096D01*
X1047343Y901446D01*
X1048461Y907389D01*
X1049985Y912774D01*
X1051915Y917752D01*
X1054150Y922172D01*
X1056741Y926084D01*
X1059586Y929487D01*
X1062736Y932281D01*
X1066088Y934567D01*
X1069644Y936244D01*
X1073353Y937310D01*
X1077214Y937768D01*
X1081227Y937564D01*
X1085291Y936701D01*
X1089406Y935228D01*
X1093571Y933043D01*
X1097737Y930148D01*
X1101902Y926541D01*
X1105966Y922172D01*
X1109522Y917498D01*
X1112367Y912571D01*
X1114602Y907542D01*
X1116177Y902360D01*
X1117092Y897077D01*
X1117447Y891844D01*
X1117244Y886612D01*
X1116431Y881430D01*
X1115110Y876401D01*
X1113282Y871575D01*
X1110996Y866952D01*
X1108202Y862584D01*
X1104950Y858570D01*
X1101293Y854913D01*
X1097229Y851712D01*
X1092758Y848969D01*
X1087983Y846734D01*
X1082802Y845108D01*
X1077366Y844092D01*
X1071575Y843737D01*
X1061008Y843940D01*
X1057046Y844448D01*
X1053896Y845413D01*
X1051407Y846988D01*
X1049528Y849325D01*
X1048207Y852627D01*
X1047343Y856996D01*
X1046784Y862584D01*
X1046378Y878078D01*
X1019657Y878078D01*
X1019657Y825906D01*
X1066393Y826160D01*
X1074318Y826516D01*
X1081684Y827125D01*
X1088440Y827989D01*
X1094689Y829106D01*
X1100378Y830529D01*
X1105560Y832256D01*
X1110234Y834237D01*
X1114399Y836574D01*
X1118158Y839266D01*
X1121460Y842314D01*
X1124356Y845769D01*
X1126794Y849579D01*
X1128877Y853795D01*
X1130604Y858418D01*
X1131925Y863447D01*
X1132992Y868984D01*
X1133703Y874928D01*
X1134110Y881380D01*
X1134110Y895248D01*
X1133703Y901700D01*
X1132992Y907643D01*
X1131925Y913130D01*
X1130604Y918210D01*
X1128877Y922832D01*
X1126794Y927049D01*
X1124356Y930859D01*
X1121460Y934262D01*
X1118158Y937310D01*
X1114399Y940003D01*
X1110234Y942340D01*
X1105560Y944371D01*
X1100378Y946099D01*
X1094689Y947470D01*
X1088440Y948588D01*
X1081684Y949452D01*
X1074318Y950061D01*
X1057859Y950569D01*
G37*
G36*
X1160983Y950721D02*
G01*
X1160983Y825906D01*
X1225499Y826058D01*
X1235710Y826566D01*
X1244803Y827379D01*
X1252626Y828446D01*
X1259027Y829767D01*
X1263853Y831291D01*
X1266850Y832967D01*
X1267917Y834796D01*
X1267155Y836625D01*
X1264920Y838301D01*
X1261364Y839774D01*
X1256690Y841095D01*
X1251051Y842213D01*
X1244549Y843026D01*
X1237386Y843534D01*
X1217828Y843838D01*
X1208735Y844296D01*
X1201978Y845312D01*
X1197254Y847090D01*
X1194206Y849833D01*
X1192479Y853744D01*
X1191717Y859078D01*
X1191514Y866038D01*
X1191717Y872591D01*
X1192428Y877722D01*
X1193800Y881634D01*
X1196086Y884478D01*
X1199489Y886409D01*
X1204214Y887577D01*
X1210360Y888136D01*
X1218234Y888288D01*
X1228648Y889000D01*
X1237132Y890930D01*
X1242872Y893775D01*
X1245006Y897229D01*
X1242872Y900684D01*
X1237132Y903528D01*
X1228648Y905408D01*
X1206195Y906932D01*
X1197864Y909319D01*
X1193088Y913485D01*
X1191514Y919480D01*
X1191971Y922985D01*
X1193444Y925830D01*
X1195984Y928166D01*
X1199794Y929995D01*
X1204976Y931316D01*
X1211580Y932180D01*
X1219809Y932687D01*
X1237386Y933043D01*
X1244549Y933551D01*
X1251051Y934415D01*
X1256690Y935482D01*
X1261364Y936802D01*
X1264920Y938326D01*
X1267155Y940003D01*
X1267917Y941781D01*
X1266850Y943610D01*
X1263853Y945337D01*
X1259027Y946861D01*
X1252626Y948131D01*
X1244803Y949248D01*
X1235710Y950010D01*
X1225499Y950518D01*
X1214424Y950721D01*
G37*
G36*
X932180Y947623D02*
G01*
X926439Y947166D01*
X920648Y946302D01*
X914704Y944930D01*
X908710Y943102D01*
X902665Y940765D01*
X896619Y937971D01*
X892149Y935431D01*
X888034Y932687D01*
X884275Y929741D01*
X880922Y926592D01*
X877976Y923239D01*
X875334Y919734D01*
X873048Y916076D01*
X871118Y912317D01*
X869543Y908405D01*
X868273Y904392D01*
X867359Y900328D01*
X866749Y896213D01*
X866495Y892048D01*
X866541Y888288D01*
X893622Y888288D01*
X893876Y894435D01*
X894689Y900226D01*
X896010Y905611D01*
X897839Y910590D01*
X900023Y915111D01*
X902665Y919226D01*
X905611Y922832D01*
X908862Y925982D01*
X912368Y928573D01*
X916127Y930706D01*
X920089Y932230D01*
X924204Y933246D01*
X928420Y933653D01*
X932738Y933500D01*
X937056Y932687D01*
X941425Y931265D01*
X945692Y929182D01*
X949909Y926439D01*
X954024Y923036D01*
X957986Y918870D01*
X961288Y914501D01*
X963980Y909878D01*
X966114Y905103D01*
X967638Y900176D01*
X968603Y895197D01*
X969060Y890168D01*
X968959Y885139D01*
X968349Y880211D01*
X967282Y875385D01*
X965708Y870712D01*
X963726Y866241D01*
X961339Y862025D01*
X958494Y858164D01*
X955294Y854608D01*
X951737Y851509D01*
X947775Y848817D01*
X943559Y846683D01*
X938987Y845058D01*
X934110Y844092D01*
X928979Y843737D01*
X923544Y844042D01*
X918514Y845058D01*
X913942Y846683D01*
X909777Y848969D01*
X906068Y851865D01*
X902817Y855370D01*
X900023Y859434D01*
X897737Y864108D01*
X895959Y869340D01*
X894638Y875131D01*
X893876Y881430D01*
X893622Y888288D01*
X866541Y888288D01*
X866851Y883666D01*
X868426Y875334D01*
X871169Y867206D01*
X872947Y863244D01*
X877316Y855624D01*
X879906Y852068D01*
X882751Y848614D01*
X885799Y845362D01*
X889152Y842264D01*
X892657Y839419D01*
X896467Y836777D01*
X900480Y834339D01*
X904697Y832205D01*
X909116Y830376D01*
X913739Y828802D01*
X918565Y827582D01*
X923594Y826668D01*
X928827Y826109D01*
X934212Y825906D01*
X939495Y826262D01*
X944829Y827379D01*
X950061Y829106D01*
X955243Y831443D01*
X960323Y834339D01*
X965149Y837742D01*
X969771Y841603D01*
X974140Y845870D01*
X978153Y850493D01*
X981760Y855421D01*
X984961Y860552D01*
X987704Y865936D01*
X989888Y871423D01*
X991514Y877011D01*
X992581Y882650D01*
X992886Y888288D01*
X992682Y894384D01*
X991920Y900176D01*
X990752Y905713D01*
X989126Y910945D01*
X987094Y915924D01*
X984707Y920496D01*
X981913Y924814D01*
X978763Y928776D01*
X975258Y932383D01*
X971448Y935634D01*
X967333Y938530D01*
X962964Y941019D01*
X958342Y943152D01*
X953516Y944880D01*
X948436Y946200D01*
X943203Y947115D01*
X937768Y947572D01*
G37*
D10*
X419100Y5665215D02*
G01*
X419100Y5556250D01*
X491743Y5665215D02*
G01*
X491743Y5556250D01*
X419100Y5613400D02*
G01*
X491743Y5613400D01*
X526034Y5644387D02*
G01*
X536447Y5649721D01*
X552195Y5665215D01*
X552195Y5556250D01*
X1943100Y5665215D02*
G01*
X1943100Y5556250D01*
X2015743Y5665215D02*
G01*
X2015743Y5556250D01*
X1943100Y5613400D02*
G01*
X2015743Y5613400D01*
X2055368Y5639307D02*
G01*
X2055368Y5644387D01*
X2060447Y5654802D01*
X2065781Y5660136D01*
X2076195Y5665215D01*
X2096770Y5665215D01*
X2107184Y5660136D01*
X2112518Y5654802D01*
X2117597Y5644387D01*
X2117597Y5633973D01*
X2112518Y5623560D01*
X2102104Y5608065D01*
X2050034Y5556250D01*
X2122931Y5556250D01*
X1186179Y4786376D02*
G01*
X1186179Y4677410D01*
X1186179Y4786376D02*
G01*
X1258824Y4677410D01*
X1258824Y4786376D02*
G01*
X1258824Y4677410D01*
X1324356Y4786376D02*
G01*
X1313941Y4781295D01*
X1303527Y4770881D01*
X1298447Y4760468D01*
X1293113Y4744720D01*
X1293113Y4718812D01*
X1298447Y4703318D01*
X1303527Y4692904D01*
X1313941Y4682489D01*
X1324356Y4677410D01*
X1345184Y4677410D01*
X1355597Y4682489D01*
X1366011Y4692904D01*
X1371091Y4703318D01*
X1376425Y4718812D01*
X1376425Y4744720D01*
X1371091Y4760468D01*
X1366011Y4770881D01*
X1355597Y4781295D01*
X1345184Y4786376D01*
X1324356Y4786376D01*
X1410715Y4786376D02*
G01*
X1410715Y4677410D01*
X1410715Y4786376D02*
G01*
X1447038Y4786376D01*
X1462531Y4781295D01*
X1472945Y4770881D01*
X1478279Y4760468D01*
X1483359Y4744720D01*
X1483359Y4718812D01*
X1478279Y4703318D01*
X1472945Y4692904D01*
X1462531Y4682489D01*
X1447038Y4677410D01*
X1410715Y4677410D01*
X1517650Y4786376D02*
G01*
X1517650Y4677410D01*
X1517650Y4786376D02*
G01*
X1585213Y4786376D01*
X1517650Y4734560D02*
G01*
X1559306Y4734560D01*
X1517650Y4677410D02*
G01*
X1585213Y4677410D01*
X1619504Y4765547D02*
G01*
X1629918Y4770881D01*
X1645411Y4786376D01*
X1645411Y4677410D01*
X546100Y2401315D02*
G01*
X546100Y2304287D01*
X546100Y2401315D02*
G01*
X606043Y2401315D01*
X546100Y2355087D02*
G01*
X582929Y2355087D01*
X546100Y2304287D02*
G01*
X606043Y2304287D01*
X701293Y2387345D02*
G01*
X692150Y2396489D01*
X678179Y2401315D01*
X659638Y2401315D01*
X645922Y2396489D01*
X636524Y2387345D01*
X636524Y2378202D01*
X641350Y2368804D01*
X645922Y2364231D01*
X655065Y2359660D01*
X682752Y2350515D01*
X692150Y2345689D01*
X696722Y2341118D01*
X701293Y2331973D01*
X701293Y2318004D01*
X692150Y2308860D01*
X678179Y2304287D01*
X659638Y2304287D01*
X645922Y2308860D01*
X636524Y2318004D01*
X731774Y2401315D02*
G01*
X731774Y2304287D01*
X731774Y2401315D02*
G01*
X773429Y2401315D01*
X787145Y2396489D01*
X791718Y2391918D01*
X796290Y2382773D01*
X796290Y2368804D01*
X791718Y2359660D01*
X787145Y2355087D01*
X773429Y2350515D01*
X731774Y2350515D01*
X826770Y2345689D02*
G01*
X910081Y2345689D01*
X963675Y2401315D02*
G01*
X949706Y2396489D01*
X945134Y2387345D01*
X945134Y2378202D01*
X949706Y2368804D01*
X958850Y2364231D01*
X977391Y2359660D01*
X991361Y2355087D01*
X1000506Y2345689D01*
X1005077Y2336545D01*
X1005077Y2322829D01*
X1000506Y2313431D01*
X995934Y2308860D01*
X981963Y2304287D01*
X963675Y2304287D01*
X949706Y2308860D01*
X945134Y2313431D01*
X940561Y2322829D01*
X940561Y2336545D01*
X945134Y2345689D01*
X954277Y2355087D01*
X968247Y2359660D01*
X986790Y2364231D01*
X995934Y2368804D01*
X1000506Y2378202D01*
X1000506Y2387345D01*
X995934Y2396489D01*
X981963Y2401315D01*
X963675Y2401315D01*
X1040129Y2378202D02*
G01*
X1040129Y2382773D01*
X1044956Y2391918D01*
X1049527Y2396489D01*
X1058672Y2401315D01*
X1077213Y2401315D01*
X1086358Y2396489D01*
X1090929Y2391918D01*
X1095756Y2382773D01*
X1095756Y2373629D01*
X1090929Y2364231D01*
X1081786Y2350515D01*
X1035558Y2304287D01*
X1100327Y2304287D01*
X1186179Y2387345D02*
G01*
X1181608Y2396489D01*
X1167638Y2401315D01*
X1158493Y2401315D01*
X1144524Y2396489D01*
X1135379Y2382773D01*
X1130808Y2359660D01*
X1130808Y2336545D01*
X1135379Y2318004D01*
X1144524Y2308860D01*
X1158493Y2304287D01*
X1163065Y2304287D01*
X1177036Y2308860D01*
X1186179Y2318004D01*
X1190752Y2331973D01*
X1190752Y2336545D01*
X1186179Y2350515D01*
X1177036Y2359660D01*
X1163065Y2364231D01*
X1158493Y2364231D01*
X1144524Y2359660D01*
X1135379Y2350515D01*
X1130808Y2336545D01*
X1276604Y2387345D02*
G01*
X1272031Y2396489D01*
X1258315Y2401315D01*
X1248918Y2401315D01*
X1235202Y2396489D01*
X1225804Y2382773D01*
X1221231Y2359660D01*
X1221231Y2336545D01*
X1225804Y2318004D01*
X1235202Y2308860D01*
X1248918Y2304287D01*
X1253490Y2304287D01*
X1267459Y2308860D01*
X1276604Y2318004D01*
X1281429Y2331973D01*
X1281429Y2336545D01*
X1276604Y2350515D01*
X1267459Y2359660D01*
X1253490Y2364231D01*
X1248918Y2364231D01*
X1235202Y2359660D01*
X1225804Y2350515D01*
X1221231Y2336545D01*
X1311909Y2401315D02*
G01*
X1311909Y2304287D01*
X1311909Y2401315D02*
G01*
X1348740Y2304287D01*
X1385570Y2401315D02*
G01*
X1348740Y2304287D01*
X1385570Y2401315D02*
G01*
X1385570Y2304287D01*
X1443990Y2401315D02*
G01*
X1434591Y2396489D01*
X1425447Y2387345D01*
X1420875Y2378202D01*
X1416050Y2364231D01*
X1416050Y2341118D01*
X1420875Y2327402D01*
X1425447Y2318004D01*
X1434591Y2308860D01*
X1443990Y2304287D01*
X1462277Y2304287D01*
X1471675Y2308860D01*
X1480820Y2318004D01*
X1485391Y2327402D01*
X1489963Y2341118D01*
X1489963Y2364231D01*
X1485391Y2378202D01*
X1480820Y2387345D01*
X1471675Y2396489D01*
X1462277Y2401315D01*
X1443990Y2401315D01*
X1520443Y2401315D02*
G01*
X1520443Y2304287D01*
X1520443Y2401315D02*
G01*
X1552956Y2401315D01*
X1566672Y2396489D01*
X1576070Y2387345D01*
X1580641Y2378202D01*
X1585213Y2364231D01*
X1585213Y2341118D01*
X1580641Y2327402D01*
X1576070Y2318004D01*
X1566672Y2308860D01*
X1552956Y2304287D01*
X1520443Y2304287D01*
X1686813Y2382773D02*
G01*
X1695958Y2387345D01*
X1709927Y2401315D01*
X1709927Y2304287D01*
X1744979Y2378202D02*
G01*
X1744979Y2382773D01*
X1749552Y2391918D01*
X1754124Y2396489D01*
X1763522Y2401315D01*
X1781809Y2401315D01*
X1791208Y2396489D01*
X1795779Y2391918D01*
X1800352Y2382773D01*
X1800352Y2373629D01*
X1795779Y2364231D01*
X1786636Y2350515D01*
X1740408Y2304287D01*
X1804924Y2304287D01*
X1835404Y2401315D02*
G01*
X1835404Y2304287D01*
X1835404Y2401315D02*
G01*
X1895602Y2401315D01*
X1835404Y2355087D02*
G01*
X1872488Y2355087D01*
X1835404Y2304287D02*
G01*
X1895602Y2304287D01*
X1726184Y4318000D02*
G01*
X1835150Y4318000D01*
X1726184Y4318000D02*
G01*
X1726184Y4364736D01*
X1731263Y4380229D01*
X1736597Y4385563D01*
X1747011Y4390644D01*
X1757425Y4390644D01*
X1767840Y4385563D01*
X1772920Y4380229D01*
X1778000Y4364736D01*
X1778000Y4318000D01*
X1778000Y4354321D02*
G01*
X1835150Y4390644D01*
X1747011Y4424934D02*
G01*
X1741677Y4435347D01*
X1726184Y4451095D01*
X1835150Y4451095D01*
X1333500Y-51815D02*
G01*
X1333500Y57150D01*
X1333500Y-51815D02*
G01*
X1286763Y-51815D01*
X1271270Y-46736D01*
X1265936Y-41402D01*
X1260856Y-30987D01*
X1260856Y-20573D01*
X1265936Y-10160D01*
X1271270Y-5079D01*
X1286763Y0D01*
X1333500Y0D01*
X1297177Y0D02*
G01*
X1260856Y57150D01*
X1221231Y-25907D02*
G01*
X1221231Y-30987D01*
X1216152Y-41402D01*
X1210818Y-46736D01*
X1200404Y-51815D01*
X1179829Y-51815D01*
X1169415Y-46736D01*
X1164081Y-41402D01*
X1159002Y-30987D01*
X1159002Y-20573D01*
X1164081Y-10160D01*
X1174495Y5334D01*
X1226565Y57150D01*
X1153668Y57150D01*
X265684Y2857500D02*
G01*
X374650Y2857500D01*
X265684Y2857500D02*
G01*
X265684Y2904236D01*
X270763Y2919729D01*
X276097Y2925063D01*
X286512Y2930144D01*
X296926Y2930144D01*
X307339Y2925063D01*
X312420Y2919729D01*
X317500Y2904236D01*
X317500Y2857500D01*
X317500Y2893821D02*
G01*
X374650Y2930144D01*
X265684Y2974847D02*
G01*
X265684Y3031997D01*
X307339Y3001010D01*
X307339Y3016504D01*
X312420Y3026918D01*
X317500Y3031997D01*
X333247Y3037331D01*
X343662Y3037331D01*
X359155Y3031997D01*
X369570Y3021584D01*
X374650Y3006089D01*
X374650Y2990595D01*
X369570Y2974847D01*
X364489Y2969768D01*
X354076Y2964434D01*
X1651000Y3377184D02*
G01*
X1651000Y3486150D01*
X1651000Y3377184D02*
G01*
X1604263Y3377184D01*
X1588770Y3382263D01*
X1583436Y3387597D01*
X1578356Y3398012D01*
X1578356Y3408426D01*
X1583436Y3418839D01*
X1588770Y3423920D01*
X1604263Y3429000D01*
X1651000Y3429000D01*
X1614677Y3429000D02*
G01*
X1578356Y3486150D01*
X1491995Y3377184D02*
G01*
X1544065Y3449828D01*
X1466088Y3449828D01*
X1491995Y3377184D02*
G01*
X1491995Y3486150D01*
X1397000Y5027218D02*
G01*
X1397000Y4949240D01*
X1402079Y4933746D01*
X1412493Y4923332D01*
X1428241Y4918252D01*
X1438656Y4918252D01*
X1454150Y4923332D01*
X1464563Y4933746D01*
X1469643Y4949240D01*
X1469643Y5027218D01*
X1503934Y5006390D02*
G01*
X1514347Y5011724D01*
X1530095Y5027218D01*
X1530095Y4918252D01*
X1714500Y1894281D02*
G01*
X1714500Y1972259D01*
X1709420Y1987753D01*
X1699006Y1998167D01*
X1683258Y2003247D01*
X1672843Y2003247D01*
X1657350Y1998167D01*
X1646936Y1987753D01*
X1641856Y1972259D01*
X1641856Y1894281D01*
X1602231Y1920189D02*
G01*
X1602231Y1915109D01*
X1597152Y1904695D01*
X1591818Y1899361D01*
X1581404Y1894281D01*
X1560829Y1894281D01*
X1550415Y1899361D01*
X1545081Y1904695D01*
X1540002Y1915109D01*
X1540002Y1925523D01*
X1545081Y1935937D01*
X1555495Y1951431D01*
X1607565Y2003247D01*
X1534668Y2003247D01*
X635000Y1725218D02*
G01*
X635000Y1647240D01*
X640079Y1631746D01*
X650493Y1621332D01*
X666241Y1616252D01*
X676656Y1616252D01*
X692150Y1621332D01*
X702563Y1631746D01*
X707643Y1647240D01*
X707643Y1725218D01*
X752347Y1725218D02*
G01*
X809497Y1725218D01*
X778509Y1683562D01*
X794004Y1683562D01*
X804418Y1678482D01*
X809497Y1673402D01*
X814831Y1657654D01*
X814831Y1647240D01*
X809497Y1631746D01*
X799084Y1621332D01*
X783590Y1616252D01*
X768095Y1616252D01*
X752347Y1621332D01*
X747268Y1626412D01*
X741934Y1636826D01*
X635000Y5027218D02*
G01*
X635000Y4949240D01*
X640079Y4933746D01*
X650493Y4923332D01*
X666241Y4918252D01*
X676656Y4918252D01*
X692150Y4923332D01*
X702563Y4933746D01*
X707643Y4949240D01*
X707643Y5027218D01*
X794004Y5027218D02*
G01*
X741934Y4954574D01*
X819911Y4954574D01*
X794004Y5027218D02*
G01*
X794004Y4918252D01*
D11*
X952500Y5524500D02*
G01*
X952500Y5270500D01*
X-63500Y5270500D01*
X-63500Y5524500D01*
X127000Y5524500D01*
D12*
X952500Y5524500D02*
G01*
X127000Y5524500D01*
D11*
X2476500Y5524500D02*
G01*
X2476500Y5270500D01*
X1460500Y5270500D01*
X1460500Y5524500D01*
X1651000Y5524500D01*
D12*
X2476500Y5524500D02*
G01*
X1651000Y5524500D01*
D13*
X-63500Y165100D02*
G01*
X-63500Y4526279D01*
X2476505Y4533427D02*
G01*
X2476500Y170179D01*
X2377440Y66039D02*
G01*
X37444Y66039D01*
X35560Y4632960D02*
G01*
X2375555Y4632960D01*
X858520Y2550D02*
G01*
X858520Y502930D01*
X1600200Y502930D01*
X1600200Y2550D01*
X861059Y66050D02*
G01*
X1597659Y66050D01*
X899159Y502930D02*
G01*
X858520Y502930D01*
X858520Y347990D01*
X1549400Y502930D02*
G01*
X1600200Y502930D01*
X1600200Y337830D01*
X858520Y99070D02*
G01*
X858520Y7630D01*
X1600200Y99070D02*
G01*
X1600200Y7630D01*
X899159Y-2529D02*
G01*
X883564Y949D01*
X883564Y949D02*
G01*
X858520Y10D01*
X1600200Y2550D02*
G01*
X1574444Y949D01*
X1574444Y949D02*
G01*
X1562100Y10D01*
X934364Y-37150D02*
G01*
X1523644Y-37150D01*
X934364Y-57470D02*
G01*
X1523644Y-57470D01*
X919124Y-19370D02*
G01*
X919124Y-21910D01*
X919124Y-21910D02*
G01*
X919124Y-42230D01*
X1538884Y-19370D02*
G01*
X1538884Y-21910D01*
X1538884Y-21910D02*
G01*
X1538884Y-42230D01*
X861059Y10D02*
G01*
X835659Y-43169D01*
X833120Y-45709D02*
G01*
X853084Y-57470D01*
X853084Y-57470D02*
G01*
X881024Y-11750D01*
X1597659Y10D02*
G01*
X1623059Y-43169D01*
X1623059Y-45709D02*
G01*
X1604924Y-57470D01*
X1604924Y-57470D02*
G01*
X1576984Y-14290D01*
X523240Y508010D02*
G01*
X523240Y558810D01*
X675640Y558810D01*
X675640Y514832D01*
X472440Y152410D02*
G01*
X726440Y152410D01*
X726440Y508010D01*
X472440Y508010D01*
X472440Y152410D01*
X523240Y152410D01*
X523240Y101610D01*
X675640Y101610D01*
X675640Y152410D01*
X1778000Y508010D02*
G01*
X1778000Y558810D01*
X1930400Y558810D01*
X1930400Y517372D01*
X1727200Y152410D02*
G01*
X1981200Y152410D01*
X1981200Y508010D01*
X1727200Y508010D01*
X1727200Y152410D01*
X1778000Y152410D01*
X1778000Y101610D01*
X1930400Y101610D01*
X1930400Y152410D01*
X297436Y4589279D02*
G01*
X297436Y3239269D01*
X297436Y2039373D01*
X297436Y2039373D02*
G01*
X2097534Y2039373D01*
X297436Y4589279D02*
G01*
X2097534Y4589279D01*
X2097534Y4589279D02*
G01*
X2097534Y2039373D01*
X297436Y3989331D02*
G01*
X1897382Y3989331D01*
X2097534Y3989331D01*
D14*
X1953262Y4040639D02*
G01*
X1953262Y4502919D01*
X1409702Y4502919D01*
X1409702Y4243839D01*
X1150622Y4243839D01*
X1150622Y4502919D01*
X896622Y4502919D01*
X896622Y4243839D01*
X655322Y4243839D01*
X655322Y4502919D01*
X452122Y4502919D01*
X452122Y4040639D01*
X1686562Y4033019D02*
G01*
X1686562Y4501649D01*
D13*
X444502Y3735839D02*
G01*
X444502Y2211839D01*
X1968502Y2211839D01*
X1968502Y3735839D01*
X444502Y3735839D01*
X1968500Y4064000D02*
G01*
X1968500Y4038600D01*
X1968500Y4572000D02*
G01*
X1968500Y4597400D01*
X1968500Y4064000D02*
G01*
X1892300Y4064000D01*
X2044700Y4064000D02*
G01*
X1968500Y4064000D01*
X2044700Y4572000D02*
G01*
X2044700Y4064000D01*
X1968500Y4572000D02*
G01*
X2044700Y4572000D01*
X1892300Y4572000D02*
G01*
X1968500Y4572000D01*
X1892300Y4064000D02*
G01*
X1892300Y4572000D01*
X1587500Y190500D02*
G01*
X1612900Y190500D01*
X1079500Y190500D02*
G01*
X1054100Y190500D01*
X1587500Y190500D02*
G01*
X1587500Y114300D01*
X1587500Y266700D02*
G01*
X1587500Y190500D01*
X1079500Y266700D02*
G01*
X1587500Y266700D01*
X1079500Y190500D02*
G01*
X1079500Y266700D01*
X1079500Y114300D02*
G01*
X1079500Y190500D01*
X1587500Y114300D02*
G01*
X1079500Y114300D01*
X508000Y2603500D02*
G01*
X508000Y2578100D01*
X508000Y3111500D02*
G01*
X508000Y3136900D01*
X508000Y2603500D02*
G01*
X431800Y2603500D01*
X584200Y2603500D02*
G01*
X508000Y2603500D01*
X584200Y3111500D02*
G01*
X584200Y2603500D01*
X508000Y3111500D02*
G01*
X584200Y3111500D01*
X431800Y3111500D02*
G01*
X508000Y3111500D01*
X431800Y2603500D02*
G01*
X431800Y3111500D01*
X1905000Y3619500D02*
G01*
X1930400Y3619500D01*
X1397000Y3619500D02*
G01*
X1371600Y3619500D01*
X1905000Y3619500D02*
G01*
X1905000Y3543300D01*
X1905000Y3695700D02*
G01*
X1905000Y3619500D01*
X1397000Y3695700D02*
G01*
X1905000Y3695700D01*
X1397000Y3619500D02*
G01*
X1397000Y3695700D01*
X1397000Y3543300D02*
G01*
X1397000Y3619500D01*
X1905000Y3543300D02*
G01*
X1397000Y3543300D01*
X1626999Y4706500D02*
G01*
X1626999Y4056499D01*
X1167000Y4706500D02*
G01*
X1167000Y4450435D01*
X1167000Y4109557D02*
G01*
X1167000Y4312564D01*
X1167000Y4706500D02*
G01*
X1171760Y4706500D01*
X1368239Y4706500D02*
G01*
X1425760Y4706500D01*
X1622239Y4706500D02*
G01*
X1626999Y4706500D01*
X1626999Y4056499D02*
G01*
X1622239Y4056499D01*
X1425760Y4056499D02*
G01*
X1383113Y4056499D01*
X1484500Y2214999D02*
G01*
X1484500Y2865000D01*
X1944499Y2214999D02*
G01*
X1944499Y2471064D01*
X1944499Y2811942D02*
G01*
X1944499Y2608935D01*
X1944499Y2214999D02*
G01*
X1939739Y2214999D01*
X1743260Y2214999D02*
G01*
X1685739Y2214999D01*
X1489260Y2214999D02*
G01*
X1484500Y2214999D01*
X1484500Y2865000D02*
G01*
X1489260Y2865000D01*
X1685739Y2865000D02*
G01*
X1728386Y2865000D01*
X864999Y1404500D02*
G01*
X864999Y754499D01*
X405000Y1404500D02*
G01*
X405000Y1148435D01*
X405000Y807557D02*
G01*
X405000Y1010564D01*
X405000Y1404500D02*
G01*
X409760Y1404500D01*
X606239Y1404500D02*
G01*
X663760Y1404500D01*
X860239Y1404500D02*
G01*
X864999Y1404500D01*
X864999Y754499D02*
G01*
X860239Y754499D01*
X663760Y754499D02*
G01*
X621113Y754499D01*
X864999Y4706500D02*
G01*
X864999Y4056499D01*
X405000Y4706500D02*
G01*
X405000Y4450435D01*
X405000Y4109557D02*
G01*
X405000Y4312564D01*
X405000Y4706500D02*
G01*
X409760Y4706500D01*
X606239Y4706500D02*
G01*
X663760Y4706500D01*
X860239Y4706500D02*
G01*
X864999Y4706500D01*
X864999Y4056499D02*
G01*
X860239Y4056499D01*
X663760Y4056499D02*
G01*
X621113Y4056499D01*
G75*
G01*
X876300Y10D02*
G02*
X920750Y-15484I6997J-51434D01*
G75*
G01*
X920750Y-20056D02*
G03*
X935990Y-34534I15002J532D01*
G75*
G01*
X920750Y-40630D02*
G03*
X935990Y-56124I15004J-484D01*
G75*
G01*
X1525524Y-56124D02*
G03*
X1540764Y-40630I236J15010D01*
G75*
G01*
X1525524Y-34534D02*
G03*
X1540764Y-20056I238J15010D01*
G75*
G01*
X1540764Y-15484D02*
G02*
X1579880Y10I32959J-26084D01*
G75*
G01*
X882396Y-10150D02*
G03*
X886460Y10I-11596J10531D01*
G75*
G01*
X1579626Y-10658D02*
G02*
X1577340Y10I13209J8410D01*
G75*
G01*
X2377440Y4632960D02*
G02*
X2477440Y4532960I0J-100000D01*
G75*
G01*
X-63500Y4533900D02*
G02*
X36500Y4633900I100000J0D01*
G75*
G01*
X2476500Y165100D02*
G02*
X2376500Y65100I-100000J0D01*
G75*
G01*
X35560Y66040D02*
G02*
X-64435Y165067I0J100000D01*
G75*
G01*
X1167000Y4450436D02*
G02*
X1166876Y4312463I-62J-68987D01*
G75*
G01*
X1944500Y2471064D02*
G02*
X1944624Y2609037I62J68987D01*
G75*
G01*
X405000Y1148436D02*
G02*
X404876Y1010463I-62J-68987D01*
G75*
G01*
X405000Y4450436D02*
G02*
X404876Y4312463I-62J-68987D01*
G75*
G01
X599440Y317500D02*
G03X599440Y317500I-12700J0D01*
G75*
G01
X624840Y342900D02*
G03X624840Y342900I-12700J0D01*
G75*
G01
X624840Y330200D02*
G03X624840Y330200I-25400J0D01*
G75*
G01
X650240Y330200D02*
G03X650240Y330200I-50800J0D01*
G75*
G01
X675640Y330200D02*
G03X675640Y330200I-76200J0D01*
G75*
G01
X1854200Y317500D02*
G03X1854200Y317500I-12700J0D01*
G75*
G01
X1879600Y342900D02*
G03X1879600Y342900I-12700J0D01*
G75*
G01
X1879600Y330200D02*
G03X1879600Y330200I-25400J0D01*
G75*
G01
X1905000Y330200D02*
G03X1905000Y330200I-50800J0D01*
G75*
G01
X1930400Y330200D02*
G03X1930400Y330200I-76200J0D01*
M02*
